# OBJ generated by ONSHAPE BY PTC INC, 1.211 Units = meters
mtllib L1M1.mtl
g Part 1
v 0.3556 0.36322 0 
v 0.39878 0.36322 0 
v 0.39878 0.36322 0.0762 
v 0.3556 0.36322 0.0762 
v 0.3556 0.39878 0.0762 
v 0.3556 0.39878 0 
v 0.29718 0.39878 0.0762 
v 0.29718 0.39878 0 
v 0.29718 0.2032 0.0762 
v 0.29718 0.2032 0 
v 0.26162 0.2032 0.0762 
v 0.26162 0.2032 0 
v 0.26162 0.36322 0.0762 
v 0.26162 0.36322 0 
v 0.1524 0.36322 0.0762 
v 0.1524 0.36322 0 
v 0.1524 0.39878 0.0762 
v 0.1524 0.39878 0 
v 0.39878 0.3048 0 
v 0.39878 0.3048 0.0762 
v 0.36322 0.3048 0 
v 0.36322 0.3048 0.0762 
v 0.36322 0.2032 0 
v 0.36322 0.2032 0.0762 
v 0.39878 0.2032 0 
v 0.39878 0.2032 0.0762 
v 0.39878 0.1524 0 
v 0.39878 0.1524 0.0762 
v 0.36322 0.1524 0 
v 0.36322 0.1524 0.0762 
v 0.36322 0.04318 0 
v 0.36322 0.04318 0.0762 
v 0.1524 0.04318 0 
v 0.1524 0.04318 0.0762 
v 0.1524 0.00762 0 
v 0.1524 0.00762 0.0762 
v 0.00762 0.00762 0 
v 0.00762 0.00762 0.0762 
v 0.00762 0.39878 0 
v 0.00762 0.39878 0.0762 
v 0.00762 0.29718 0.0762 
v 0.00762 0.29718 0 
v 0.05842 0.29718 0.0762 
v 0.05842 0.29718 0 
v 0.05842 0.3556 0.0762 
v 0.05842 0.3556 0 
v 0.09398 0.3556 0.0762 
v 0.09398 0.3556 0 
v 0.09398 0.26162 0.0762 
v 0.09398 0.26162 0 
v 0.04318 0.26162 0.0762 
v 0.04318 0.26162 0 
v 0.04318 0.1524 0.0762 
v 0.04318 0.1524 0 
v 0.00762 0.1524 0.0762 
v 0.00762 0.1524 0 
v 0 0.4064 0.0762 
v 0 0 0.0762 
v 0.4064 0 0.0762 
v 0.4064 0.4064 0.0762 
v 0 0.4064 -0.00254 
v 0 0 -0.00254 
v 0.4064 0 -0.00254 
v 0.4064 0.4064 -0.00254 
v 0.16002 0.3048 0 
v 0.19558 0.3048 0 
v 0.0508 0.10922 0 
v 0.1016 0.16002 0 
v 0.16002 0.10922 0 
v 0.1016 0.10922 0 
v 0.1016 0.1016 0 
v 0.3048 0.10922 0 
v 0.1016 0.19558 0 
v 0.16002 0.19558 0 
v 0.3048 0.14478 0 
v 0.16002 0.16002 0 
v 0.0508 0.1016 0 
v 0.19558 0.14478 0 
v 0.16002 0.19558 0.0762 
v 0.16002 0.3048 0.0762 
v 0.19558 0.14478 0.0762 
v 0.16002 0.16002 0.0762 
v 0.3048 0.10922 0.0762 
v 0.3048 0.14478 0.0762 
v 0.16002 0.10922 0.0762 
v 0.1016 0.16002 0.0762 
v 0.1016 0.19558 0.0762 
v 0.19558 0.3048 0.0762 
v 0.1016 0.10922 0.0508 
v 0.0508 0.10922 0.0508 
v 0.0508 0.1016 0.0508 
v 0.1016 0.1016 0.0508 
vn 0 -1 0 
vn -1 0 0 
vn 1 1.22465e-16 0 
vn 0 -1 0 
vn -1 -1.22465e-16 0 
vn 0 1 0 
vn 0 -1 0 
vn -1 0 0 
vn 0 1 0 
vn 0 -1 0 
vn 1 0 0 
vn 0 1 0 
vn -1 -1.22465e-16 0 
vn 1 1.22465e-16 0 
vn 0 -1 0 
vn 0 0 1 
vn -1 0 0 
vn 0 -1 0 
vn 1 0 0 
vn 0 1 0 
vn 0 0 -1 
vn 0 0 1 
vn -1 -1.22465e-16 0 
vn 1 0 0 
vn 0 1 0 
vn 0 -1 0 
vn -1 0 0 
vn 0 1 0 
vn 2.73185e-16 -1 0 
vn 1 0 0 
vn 0 0 1 
usemtl 0.768627_0.886275_0.952941_0.000000_0.000000
o mesh0
f 1//1 2//1 3//1 
f 3//1 4//1 1//1 
o mesh1
f 5//2 6//2 1//2 
f 1//2 4//2 5//2 
o mesh2
f 6//1 5//1 7//1 
f 7//1 8//1 6//1 
o mesh3
f 9//3 10//3 8//3 
f 8//3 7//3 9//3 
o mesh4
f 11//4 12//4 10//4 
f 10//4 9//4 11//4 
o mesh5
f 13//5 14//5 12//5 
f 12//5 11//5 13//5 
o mesh6
f 15//4 16//4 14//4 
f 14//4 13//4 15//4 
o mesh7
f 17//5 18//5 16//5 
f 16//5 15//5 17//5 
o mesh8
f 2//5 19//5 20//5 
f 20//5 3//5 2//5 
o mesh9
f 20//6 19//6 21//6 
f 21//6 22//6 20//6 
o mesh10
f 22//5 21//5 23//5 
f 23//5 24//5 22//5 
o mesh11
f 24//7 23//7 25//7 
f 25//7 26//7 24//7 
o mesh12
f 25//8 27//8 28//8 
f 28//8 26//8 25//8 
o mesh13
f 28//9 27//9 29//9 
f 29//9 30//9 28//9 
o mesh14
f 30//8 29//8 31//8 
f 31//8 32//8 30//8 
o mesh15
f 32//9 31//9 33//9 
f 33//9 34//9 32//9 
o mesh16
f 34//8 33//8 35//8 
f 35//8 36//8 34//8 
o mesh17
f 37//9 38//9 36//9 
f 36//9 35//9 37//9 
o mesh18
f 39//10 18//10 17//10 
f 17//10 40//10 39//10 
o mesh19
f 39//11 40//11 41//11 
f 41//11 42//11 39//11 
o mesh20
f 43//12 44//12 42//12 
f 42//12 41//12 43//12 
o mesh21
f 45//13 46//13 44//13 
f 44//13 43//13 45//13 
o mesh22
f 47//12 48//12 46//12 
f 46//12 45//12 47//12 
o mesh23
f 49//14 50//14 48//14 
f 48//14 47//14 49//14 
o mesh24
f 51//15 52//15 50//15 
f 50//15 49//15 51//15 
o mesh25
f 53//14 54//14 52//14 
f 52//14 51//14 53//14 
o mesh26
f 55//15 56//15 54//15 
f 54//15 53//15 55//15 
o mesh27
f 37//14 56//14 55//14 
f 55//14 38//14 37//14 
o mesh28
f 57//16 55//16 41//16 
f 55//16 53//16 51//16 
f 51//16 41//16 55//16 
f 58//16 38//16 55//16 
f 55//16 57//16 58//16 
f 58//16 59//16 36//16 
f 36//16 38//16 58//16 
f 36//16 59//16 32//16 
f 60//16 17//16 7//16 
f 17//16 15//16 13//16 
f 32//16 34//16 36//16 
f 28//16 30//16 32//16 
f 5//16 4//16 3//16 
f 13//16 7//16 17//16 
f 32//16 59//16 28//16 
f 59//16 20//16 26//16 
f 9//16 7//16 13//16 
f 7//16 5//16 60//16 
f 26//16 28//16 59//16 
f 24//16 26//16 20//16 
f 3//16 60//16 5//16 
f 57//16 40//16 17//16 
f 20//16 22//16 24//16 
f 60//16 3//16 20//16 
f 51//16 49//16 43//16 
f 47//16 45//16 43//16 
f 17//16 60//16 57//16 
f 20//16 59//16 60//16 
f 43//16 49//16 47//16 
f 41//16 40//16 57//16 
f 13//16 11//16 9//16 
f 43//16 41//16 51//16 
o mesh29
f 61//17 62//17 58//17 
f 58//17 57//17 61//17 
o mesh30
f 62//18 63//18 59//18 
f 59//18 58//18 62//18 
o mesh31
f 64//19 60//19 59//19 
f 59//19 63//19 64//19 
o mesh32
f 64//20 61//20 57//20 
f 57//20 60//20 64//20 
o mesh33
f 63//21 62//21 61//21 
f 61//21 64//21 63//21 
o mesh34
f 16//22 65//22 66//22 
f 54//22 67//22 68//22 
f 69//22 70//22 71//22 
f 33//22 31//22 72//22 
f 66//22 14//22 16//22 
f 73//22 74//22 65//22 
f 68//22 73//22 54//22 
f 48//22 50//22 16//22 
f 72//22 69//22 33//22 
f 29//22 75//22 72//22 
f 65//22 16//22 73//22 
f 73//22 16//22 54//22 
f 76//22 68//22 70//22 
f 16//22 18//22 48//22 
f 71//22 33//22 69//22 
f 72//22 31//22 29//22 
f 54//22 56//22 67//22 
f 68//22 67//22 70//22 
f 56//22 37//22 77//22 
f 37//22 35//22 33//22 
f 50//22 54//22 16//22 
f 39//22 46//22 48//22 
f 25//22 23//22 29//22 
f 29//22 23//22 75//22 
f 70//22 69//22 76//22 
f 33//22 77//22 37//22 
f 75//22 10//22 12//22 
f 23//22 21//22 10//22 
f 48//22 18//22 39//22 
f 42//22 44//22 46//22 
f 71//22 77//22 33//22 
f 77//22 67//22 56//22 
f 12//22 78//22 75//22 
f 10//22 75//22 23//22 
f 46//22 39//22 42//22 
f 66//22 12//22 14//22 
f 2//22 1//22 21//22 
f 21//22 1//22 10//22 
f 29//22 27//22 25//22 
f 12//22 66//22 78//22 
f 8//22 10//22 1//22 
f 21//22 19//22 2//22 
f 50//22 52//22 54//22 
f 1//22 6//22 8//22 
o mesh35
f 65//23 74//23 79//23 
f 79//23 80//23 65//23 
o mesh36
f 81//22 79//22 82//22 
f 83//22 84//22 81//22 
f 81//22 85//22 83//22 
f 86//22 82//22 79//22 
f 79//22 87//22 86//22 
f 88//22 80//22 79//22 
f 79//22 81//22 88//22 
f 82//22 85//22 81//22 
o mesh37
f 85//23 82//23 76//23 
f 76//23 69//23 85//23 
o mesh38
f 83//24 72//24 75//24 
f 75//24 84//24 83//24 
o mesh39
f 84//25 75//25 78//25 
f 78//25 81//25 84//25 
o mesh40
f 81//24 78//24 66//24 
f 66//24 88//24 81//24 
o mesh41
f 88//25 66//25 65//25 
f 65//25 80//25 88//25 
o mesh42
f 85//26 69//26 72//26 
f 72//26 83//26 85//26 
o mesh43
f 73//25 87//25 79//25 
f 79//25 74//25 73//25 
o mesh44
f 86//26 68//26 76//26 
f 76//26 82//26 86//26 
o mesh45
f 87//27 73//27 68//27 
f 68//27 86//27 87//27 
o mesh46
f 89//28 70//28 67//28 
f 67//28 90//28 89//28 
o mesh47
f 90//27 67//27 77//27 
f 77//27 91//27 90//27 
o mesh48
f 91//29 77//29 71//29 
f 71//29 92//29 91//29 
o mesh49
f 92//30 71//30 70//30 
f 70//30 89//30 92//30 
o mesh50
f 92//31 89//31 90//31 
f 90//31 91//31 92//31 
