# OBJ generated by ONSHAPE BY PTC INC, 1.211 Units = meters
mtllib L1M2.mtl
g Part 1
v 0.29718 0.2032 0 
v 0.29718 0.39878 0 
v 0.29718 0.39878 0.0762 
v 0.29718 0.2032 0.0762 
v 0.26162 0.2032 0.0762 
v 0.26162 0.2032 0 
v 0.26162 0.39878 0.0762 
v 0.26162 0.39878 0 
v 0.00762 0.39878 0.0762 
v 0.00762 0.39878 0 
v 0.00762 0.29718 0.0762 
v 0.00762 0.29718 0 
v 0.05842 0.29718 0.0762 
v 0.05842 0.29718 0 
v 0.05842 0.3556 0.0762 
v 0.05842 0.3556 0 
v 0.09398 0.3556 0.0762 
v 0.09398 0.3556 0 
v 0.09398 0.26162 0.0762 
v 0.09398 0.26162 0 
v 0.04318 0.26162 0.0762 
v 0.04318 0.26162 0 
v 0.04318 0.1524 0.0762 
v 0.04318 0.1524 0 
v 0.00762 0.1524 0.0762 
v 0.00762 0.1524 0 
v 0.00762 0.00762 0 
v 0.00762 0.00762 0.0762 
v 0.1524 0.00762 0.0762 
v 0.1524 0.00762 0 
v 0.1524 0.04318 0.0762 
v 0.1524 0.04318 0 
v 0.36322 0.04318 0.0762 
v 0.36322 0.04318 0 
v 0.36322 0.1524 0.0762 
v 0.36322 0.1524 0 
v 0.39878 0.1524 0.0762 
v 0.39878 0.1524 0 
v 0.39878 0.2032 0 
v 0.39878 0.2032 0.0762 
v 0.36322 0.2032 0.0762 
v 0.36322 0.2032 0 
v 0.36322 0.3048 0.0762 
v 0.36322 0.3048 0 
v 0.39878 0.3048 0.0762 
v 0.39878 0.3048 0 
v 0.39878 0.36322 0 
v 0.39878 0.36322 0.0762 
v 0.3556 0.36322 0 
v 0.3556 0.36322 0.0762 
v 0.3556 0.39878 0.0762 
v 0.3556 0.39878 0 
v 0 0.4064 0.0762 
v 0 0 0.0762 
v 0.4064 0 0.0762 
v 0.4064 0.4064 0.0762 
v 0 0.4064 -0.00254 
v 0 0 -0.00254 
v 0.4064 0 -0.00254 
v 0.4064 0.4064 -0.00254 
v 0.0508 0.1016 0 
v 0.1016 0.1016 0 
v 0.16002 0.10922 0 
v 0.1016 0.10922 0 
v 0.3048 0.10922 0 
v 0.3048 0.14478 0 
v 0.1016 0.16002 0 
v 0.1016 0.19558 0 
v 0.16002 0.19558 0 
v 0.16002 0.16002 0 
v 0.0508 0.10922 0 
v 0.16002 0.3556 0 
v 0.19558 0.3556 0 
v 0.19558 0.14478 0 
v 0.16002 0.19558 0.0762 
v 0.16002 0.3556 0.0762 
v 0.19558 0.14478 0.0762 
v 0.16002 0.16002 0.0762 
v 0.3048 0.10922 0.0762 
v 0.3048 0.14478 0.0762 
v 0.16002 0.10922 0.0762 
v 0.1016 0.16002 0.0762 
v 0.1016 0.19558 0.0762 
v 0.19558 0.3556 0.0762 
v 0.1016 0.10922 0.0508 
v 0.0508 0.10922 0.0508 
v 0.0508 0.1016 0.0508 
v 0.1016 0.1016 0.0508 
vn 1 1.22465e-16 0 
vn 0 -1 0 
vn -1 -1.22465e-16 0 
vn 1 0 0 
vn 0 1 0 
vn -1 -1.22465e-16 0 
vn 1 1.22465e-16 0 
vn 0 -1 0 
vn 0 1 0 
vn -1 0 0 
vn 0 -1 0 
vn 0 1 0 
vn -1 0 0 
vn 0 -1 0 
vn 0 0 1 
vn -1 0 0 
vn 0 -1 0 
vn 1 0 0 
vn 0 1 0 
vn 0 0 -1 
vn 0 0 1 
vn -1 -1.22465e-16 0 
vn 1 0 0 
vn 0 1 0 
vn 0 -1 0 
vn -1 0 0 
vn 0 1 0 
vn 2.73185e-16 -1 0 
vn 1 0 0 
vn 0 0 1 
usemtl 0.768627_0.886275_0.952941_0.000000_0.000000
o mesh0
f 1//1 2//1 3//1 
f 3//1 4//1 1//1 
o mesh1
f 5//2 6//2 1//2 
f 1//2 4//2 5//2 
o mesh2
f 5//3 7//3 8//3 
f 8//3 6//3 5//3 
o mesh3
f 9//2 10//2 8//2 
f 8//2 7//2 9//2 
o mesh4
f 10//4 9//4 11//4 
f 11//4 12//4 10//4 
o mesh5
f 13//5 14//5 12//5 
f 12//5 11//5 13//5 
o mesh6
f 15//6 16//6 14//6 
f 14//6 13//6 15//6 
o mesh7
f 17//5 18//5 16//5 
f 16//5 15//5 17//5 
o mesh8
f 19//7 20//7 18//7 
f 18//7 17//7 19//7 
o mesh9
f 21//8 22//8 20//8 
f 20//8 19//8 21//8 
o mesh10
f 23//7 24//7 22//7 
f 22//7 21//7 23//7 
o mesh11
f 25//8 26//8 24//8 
f 24//8 23//8 25//8 
o mesh12
f 27//7 26//7 25//7 
f 25//7 28//7 27//7 
o mesh13
f 27//9 28//9 29//9 
f 29//9 30//9 27//9 
o mesh14
f 31//10 32//10 30//10 
f 30//10 29//10 31//10 
o mesh15
f 33//9 34//9 32//9 
f 32//9 31//9 33//9 
o mesh16
f 35//10 36//10 34//10 
f 34//10 33//10 35//10 
o mesh17
f 37//9 38//9 36//9 
f 36//9 35//9 37//9 
o mesh18
f 39//10 38//10 37//10 
f 37//10 40//10 39//10 
o mesh19
f 41//11 42//11 39//11 
f 39//11 40//11 41//11 
o mesh20
f 43//10 44//10 42//10 
f 42//10 41//10 43//10 
o mesh21
f 45//12 46//12 44//12 
f 44//12 43//12 45//12 
o mesh22
f 47//13 46//13 45//13 
f 45//13 48//13 47//13 
o mesh23
f 49//14 47//14 48//14 
f 48//14 50//14 49//14 
o mesh24
f 51//13 52//13 49//13 
f 49//13 50//13 51//13 
o mesh25
f 2//14 52//14 51//14 
f 51//14 3//14 2//14 
o mesh26
f 53//15 25//15 11//15 
f 25//15 23//15 21//15 
f 21//15 11//15 25//15 
f 54//15 28//15 25//15 
f 25//15 53//15 54//15 
f 54//15 55//15 29//15 
f 29//15 28//15 54//15 
f 29//15 55//15 33//15 
f 33//15 31//15 29//15 
f 37//15 35//15 33//15 
f 51//15 50//15 48//15 
f 56//15 7//15 3//15 
f 33//15 55//15 37//15 
f 55//15 45//15 40//15 
f 3//15 51//15 56//15 
f 4//15 3//15 7//15 
f 40//15 37//15 55//15 
f 41//15 40//15 45//15 
f 7//15 5//15 4//15 
f 53//15 9//15 7//15 
f 45//15 43//15 41//15 
f 56//15 48//15 45//15 
f 21//15 19//15 13//15 
f 17//15 15//15 13//15 
f 7//15 56//15 53//15 
f 45//15 55//15 56//15 
f 13//15 19//15 17//15 
f 11//15 9//15 53//15 
f 48//15 56//15 51//15 
f 13//15 11//15 21//15 
o mesh27
f 57//16 58//16 54//16 
f 54//16 53//16 57//16 
o mesh28
f 58//17 59//17 55//17 
f 55//17 54//17 58//17 
o mesh29
f 60//18 56//18 55//18 
f 55//18 59//18 60//18 
o mesh30
f 60//19 57//19 53//19 
f 53//19 56//19 60//19 
o mesh31
f 59//20 58//20 57//20 
f 57//20 60//20 59//20 
o mesh32
f 26//21 27//21 61//21 
f 27//21 32//21 62//21 
f 63//21 64//21 62//21 
f 32//21 34//21 65//21 
f 62//21 61//21 27//21 
f 65//21 63//21 32//21 
f 36//21 66//21 65//21 
f 24//21 67//21 68//21 
f 62//21 32//21 63//21 
f 65//21 34//21 36//21 
f 68//21 69//21 20//21 
f 68//21 22//21 24//21 
f 70//21 67//21 64//21 
f 39//21 42//21 36//21 
f 36//21 42//21 66//21 
f 24//21 71//21 67//21 
f 67//21 71//21 64//21 
f 61//21 24//21 26//21 
f 64//21 63//21 70//21 
f 8//21 18//21 72//21 
f 27//21 30//21 32//21 
f 24//21 61//21 71//21 
f 72//21 73//21 8//21 
f 72//21 18//21 20//21 
f 66//21 1//21 6//21 
f 20//21 22//21 68//21 
f 20//21 69//21 72//21 
f 6//21 74//21 66//21 
f 1//21 66//21 44//21 
f 73//21 6//21 8//21 
f 10//21 16//21 18//21 
f 47//21 49//21 44//21 
f 44//21 49//21 1//21 
f 18//21 8//21 10//21 
f 12//21 14//21 16//21 
f 6//21 73//21 74//21 
f 16//21 10//21 12//21 
f 66//21 42//21 44//21 
f 2//21 1//21 49//21 
f 44//21 46//21 47//21 
f 36//21 38//21 39//21 
f 49//21 52//21 2//21 
o mesh33
f 72//22 69//22 75//22 
f 75//22 76//22 72//22 
o mesh34
f 77//21 75//21 78//21 
f 79//21 80//21 77//21 
f 77//21 81//21 79//21 
f 82//21 78//21 75//21 
f 75//21 83//21 82//21 
f 84//21 76//21 75//21 
f 75//21 77//21 84//21 
f 78//21 81//21 77//21 
o mesh35
f 81//22 78//22 70//22 
f 70//22 63//22 81//22 
o mesh36
f 79//23 65//23 66//23 
f 66//23 80//23 79//23 
o mesh37
f 80//24 66//24 74//24 
f 74//24 77//24 80//24 
o mesh38
f 77//23 74//23 73//23 
f 73//23 84//23 77//23 
o mesh39
f 84//24 73//24 72//24 
f 72//24 76//24 84//24 
o mesh40
f 81//25 63//25 65//25 
f 65//25 79//25 81//25 
o mesh41
f 68//24 83//24 75//24 
f 75//24 69//24 68//24 
o mesh42
f 82//25 67//25 70//25 
f 70//25 78//25 82//25 
o mesh43
f 83//26 68//26 67//26 
f 67//26 82//26 83//26 
o mesh44
f 85//27 64//27 71//27 
f 71//27 86//27 85//27 
o mesh45
f 86//26 71//26 61//26 
f 61//26 87//26 86//26 
o mesh46
f 87//28 61//28 62//28 
f 62//28 88//28 87//28 
o mesh47
f 88//29 62//29 64//29 
f 64//29 85//29 88//29 
o mesh48
f 88//30 85//30 86//30 
f 86//30 87//30 88//30 
