# OBJ generated by ONSHAPE BY PTC INC, 1.211 Units = meters
mtllib L1M3.mtl
g Part 1
v 0.16002 0.3556 0 
v 0.16002 0.19558 0 
v 0.16002 0.19558 0.0762 
v 0.16002 0.3556 0.0762 
v 0.19558 0.3556 0.0762 
v 0.19558 0.3556 0 
v 0.19558 0.14478 0.0762 
v 0.19558 0.14478 0 
v 0.26162 0.14478 0.0762 
v 0.26162 0.14478 0 
v 0.26162 0.254 0.0762 
v 0.26162 0.254 0 
v 0.29718 0.254 0.0762 
v 0.29718 0.254 0 
v 0.29718 0.10922 0.0762 
v 0.29718 0.10922 0 
v 0.16002 0.10922 0.0762 
v 0.16002 0.10922 0 
v 0.16002 0.16002 0.0762 
v 0.16002 0.16002 0 
v 0.1016 0.16002 0.0762 
v 0.1016 0.19558 0.0762 
v 0.1016 0.19558 0 
v 0.1016 0.16002 0 
v 0.00762 0.1524 0 
v 0.00762 0.00762 0 
v 0.0508 0.1016 0 
v 0.1016 0.1016 0 
v 0.1016 0.10922 0 
v 0.1524 0.04318 0 
v 0.36322 0.1016 0 
v 0.36322 0.3048 0 
v 0.3556 0.04318 0 
v 0.39878 0.1016 0 
v 0.04318 0.1524 0 
v 0.0508 0.10922 0 
v 0.39878 0.00762 0 
v 0.09398 0.26162 0 
v 0.04318 0.26162 0 
v 0.26162 0.39878 0 
v 0.09398 0.3556 0 
v 0.1524 0.00762 0 
v 0.26162 0.3048 0 
v 0.00762 0.39878 0 
v 0.05842 0.3556 0 
v 0.00762 0.29718 0 
v 0.05842 0.29718 0 
v 0.29718 0.3048 0 
v 0.3556 0.36322 0 
v 0.29718 0.36322 0 
v 0.39878 0.3048 0 
v 0.39878 0.39878 0 
v 0.3556 0.39878 0 
v 0.3556 0.00762 0 
v 0.00762 0.1524 0.0762 
v 0.04318 0.1524 0.0762 
v 0.04318 0.26162 0.0762 
v 0.09398 0.26162 0.0762 
v 0.09398 0.3556 0.0762 
v 0.05842 0.3556 0.0762 
v 0.05842 0.29718 0.0762 
v 0.00762 0.29718 0.0762 
v 0.3556 0.00762 0.0762 
v 0.3556 0.04318 0.0762 
v 0.1524 0.04318 0.0762 
v 0.1524 0.00762 0.0762 
v 0.26162 0.3048 0.0762 
v 0.29718 0.3048 0.0762 
v 0.29718 0.36322 0.0762 
v 0.3556 0.36322 0.0762 
v 0.3556 0.39878 0.0762 
v 0.26162 0.39878 0.0762 
v 0.36322 0.1016 0.0762 
v 0.39878 0.1016 0.0762 
v 0.39878 0.3048 0.0762 
v 0.36322 0.3048 0.0762 
v 0.00762 0.00762 0.0762 
v 0.39878 0.39878 0.0762 
v 0.39878 0.00762 0.0762 
v 0.00762 0.39878 0.0762 
v 0.1016 0.10922 0.0508 
v 0.0508 0.10922 0.0508 
v 0.0508 0.1016 0.0508 
v 0.1016 0.1016 0.0508 
v 0 0.4064 0.0762 
v 0 0 0.0762 
v 0.4064 0 0.0762 
v 0.4064 0.4064 0.0762 
v 0.4064 0.4064 -0.00254 
v 0 0.4064 -0.00254 
v 0.4064 0 -0.00254 
v 0 0 -0.00254 
vn -1 -1.22465e-16 0 
vn 0 1 0 
vn 1 1.22465e-16 0 
vn -1 -1.22465e-16 0 
vn 0 1 0 
vn 1 1.22465e-16 0 
vn 0 -1 0 
vn -1 -1.22465e-16 0 
vn 0 0 1 
vn 0 1 0 
vn 0 -1 0 
vn -1 0 0 
vn 0 0 1 
vn 0 -1 0 
vn 1 1.22465e-16 0 
vn 0 1 0 
vn -1 -1.22465e-16 0 
vn 1 0 0 
vn 0 1 0 
vn -1 0 0 
vn 0 -1 0 
vn 1 1.22465e-16 0 
vn -1 -1.22465e-16 0 
vn 0 -1 0 
vn 0 1 0 
vn -1 -1.22465e-16 0 
vn 0 -1 0 
vn 1 0 0 
vn -1 0 0 
vn 0 -1 0 
vn 1 0 0 
vn 0 1 0 
vn -1 0 0 
vn 2.73185e-16 -1 0 
vn 1 0 0 
vn 0 0 1 
vn 0 1 0 
vn 0 0 -1 
vn 1 0 0 
vn 0 -1 0 
vn -1 0 0 
usemtl 0.768627_0.886275_0.952941_0.000000_0.000000
o mesh0
f 1//1 2//1 3//1 
f 3//1 4//1 1//1 
o mesh1
f 5//2 6//2 1//2 
f 1//2 4//2 5//2 
o mesh2
f 7//3 8//3 6//3 
f 6//3 5//3 7//3 
o mesh3
f 9//2 10//2 8//2 
f 8//2 7//2 9//2 
o mesh4
f 11//4 12//4 10//4 
f 10//4 9//4 11//4 
o mesh5
f 13//5 14//5 12//5 
f 12//5 11//5 13//5 
o mesh6
f 15//6 16//6 14//6 
f 14//6 13//6 15//6 
o mesh7
f 17//7 18//7 16//7 
f 16//7 15//7 17//7 
o mesh8
f 17//8 19//8 20//8 
f 20//8 18//8 17//8 
o mesh9
f 15//9 9//9 7//9 
f 7//9 17//9 15//9 
f 13//9 11//9 9//9 
f 21//9 19//9 3//9 
f 9//9 15//9 13//9 
f 3//9 22//9 21//9 
f 19//9 7//9 3//9 
f 5//9 4//9 3//9 
f 3//9 7//9 5//9 
f 7//9 19//9 17//9 
o mesh10
f 23//10 22//10 3//10 
f 3//10 2//10 23//10 
o mesh11
f 21//11 24//11 20//11 
f 20//11 19//11 21//11 
o mesh12
f 22//12 23//12 24//12 
f 24//12 21//12 22//12 
o mesh13
f 25//13 26//13 27//13 
f 26//13 18//13 28//13 
f 24//13 29//13 18//13 
f 28//13 27//13 26//13 
f 18//13 20//13 24//13 
f 30//13 31//13 16//13 
f 29//13 28//13 18//13 
f 18//13 26//13 30//13 
f 16//13 18//13 30//13 
f 31//13 32//13 14//13 
f 14//13 16//13 31//13 
f 33//13 34//13 31//13 
f 35//13 24//13 23//13 
f 24//13 35//13 36//13 
f 37//13 34//13 33//13 
f 31//13 30//13 33//13 
f 23//13 2//13 38//13 
f 36//13 29//13 24//13 
f 27//13 35//13 25//13 
f 23//13 39//13 35//13 
f 40//13 41//13 1//13 
f 26//13 42//13 30//13 
f 35//13 27//13 36//13 
f 1//13 6//13 40//13 
f 1//13 41//13 38//13 
f 38//13 39//13 23//13 
f 38//13 2//13 1//13 
f 6//13 43//13 40//13 
f 44//13 45//13 41//13 
f 8//13 10//13 12//13 
f 41//13 40//13 44//13 
f 46//13 47//13 45//13 
f 12//13 43//13 8//13 
f 48//13 12//13 14//13 
f 48//13 32//13 49//13 
f 45//13 44//13 46//13 
f 12//13 48//13 43//13 
f 49//13 50//13 48//13 
f 43//13 6//13 8//13 
f 14//13 32//13 48//13 
f 32//13 51//13 49//13 
f 52//13 53//13 49//13 
f 49//13 51//13 52//13 
f 33//13 54//13 37//13 
o mesh14
f 55//14 25//14 35//14 
f 35//14 56//14 55//14 
o mesh15
f 56//15 35//15 39//15 
f 39//15 57//15 56//15 
o mesh16
f 57//14 39//14 38//14 
f 38//14 58//14 57//14 
o mesh17
f 58//15 38//15 41//15 
f 41//15 59//15 58//15 
o mesh18
f 59//16 41//16 45//16 
f 45//16 60//16 59//16 
o mesh19
f 60//17 45//17 47//17 
f 47//17 61//17 60//17 
o mesh20
f 61//16 47//16 46//16 
f 46//16 62//16 61//16 
o mesh21
f 63//18 54//18 33//18 
f 33//18 64//18 63//18 
o mesh22
f 64//19 33//19 30//19 
f 30//19 65//19 64//19 
o mesh23
f 65//20 30//20 42//20 
f 42//20 66//20 65//20 
o mesh24
f 67//21 43//21 48//21 
f 48//21 68//21 67//21 
o mesh25
f 68//22 48//22 50//22 
f 50//22 69//22 68//22 
o mesh26
f 69//21 50//21 49//21 
f 49//21 70//21 69//21 
o mesh27
f 70//22 49//22 53//22 
f 53//22 71//22 70//22 
o mesh28
f 72//23 40//23 43//23 
f 43//23 67//23 72//23 
o mesh29
f 73//24 31//24 34//24 
f 34//24 74//24 73//24 
o mesh30
f 75//25 51//25 32//25 
f 32//25 76//25 75//25 
o mesh31
f 76//26 32//26 31//26 
f 31//26 73//26 76//26 
o mesh32
f 26//25 77//25 66//25 
f 66//25 42//25 26//25 
o mesh33
f 52//27 78//27 71//27 
f 71//27 53//27 52//27 
o mesh34
f 37//26 79//26 74//26 
f 74//26 34//26 37//26 
o mesh35
f 44//28 80//28 62//28 
f 62//28 46//28 44//28 
o mesh36
f 52//29 51//29 75//29 
f 75//29 78//29 52//29 
o mesh37
f 44//30 40//30 72//30 
f 72//30 80//30 44//30 
o mesh38
f 26//31 25//31 55//31 
f 55//31 77//31 26//31 
o mesh39
f 37//32 54//32 63//32 
f 63//32 79//32 37//32 
o mesh40
f 81//32 29//32 36//32 
f 36//32 82//32 81//32 
o mesh41
f 82//33 36//33 27//33 
f 27//33 83//33 82//33 
o mesh42
f 83//34 27//34 28//34 
f 28//34 84//34 83//34 
o mesh43
f 84//35 28//35 29//35 
f 29//35 81//35 84//35 
o mesh44
f 84//36 81//36 82//36 
f 82//36 83//36 84//36 
o mesh45
f 85//36 55//36 62//36 
f 55//36 56//36 57//36 
f 57//36 62//36 55//36 
f 86//36 77//36 55//36 
f 55//36 85//36 86//36 
f 86//36 63//36 66//36 
f 66//36 77//36 86//36 
f 65//36 66//36 63//36 
f 63//36 64//36 65//36 
f 87//36 79//36 63//36 
f 88//36 72//36 71//36 
f 71//36 72//36 69//36 
f 63//36 86//36 87//36 
f 87//36 75//36 74//36 
f 69//36 70//36 71//36 
f 67//36 68//36 69//36 
f 74//36 79//36 87//36 
f 73//36 74//36 75//36 
f 69//36 72//36 67//36 
f 85//36 80//36 72//36 
f 75//36 76//36 73//36 
f 88//36 78//36 75//36 
f 57//36 58//36 61//36 
f 59//36 60//36 61//36 
f 72//36 88//36 85//36 
f 75//36 87//36 88//36 
f 61//36 58//36 59//36 
f 62//36 80//36 85//36 
f 71//36 78//36 88//36 
f 61//36 62//36 57//36 
o mesh46
f 89//37 90//37 85//37 
f 85//37 88//37 89//37 
o mesh47
f 91//38 92//38 90//38 
f 90//38 89//38 91//38 
o mesh48
f 91//39 89//39 88//39 
f 88//39 87//39 91//39 
o mesh49
f 92//40 91//40 87//40 
f 87//40 86//40 92//40 
o mesh50
f 90//41 92//41 86//41 
f 86//41 85//41 90//41 
