# OBJ generated by ONSHAPE BY PTC INC, 1.211 Units = meters
mtllib L1M4.mtl
g Part 1
v 0.1524 0.04318 0.0762 
v 0.39878 0.04318 0.0762 
v 0.39878 0.04318 0 
v 0.1524 0.04318 0 
v 0.1524 0.00762 0 
v 0.1524 0.00762 0.0762 
v 0.00762 0.00762 0 
v 0.00762 0.00762 0.0762 
v 0.39878 0.1016 0.0762 
v 0.39878 0.1016 0 
v 0.36322 0.1016 0.0762 
v 0.36322 0.1016 0 
v 0.36322 0.3048 0.0762 
v 0.36322 0.3048 0 
v 0.39878 0.3048 0.0762 
v 0.39878 0.3048 0 
v 0.39878 0.39878 0 
v 0.39878 0.39878 0.0762 
v 0.3556 0.39878 0.0762 
v 0.3556 0.39878 0 
v 0.3556 0.36322 0.0762 
v 0.3556 0.36322 0 
v 0.254 0.36322 0.0762 
v 0.254 0.36322 0 
v 0.254 0.39878 0.0762 
v 0.254 0.39878 0 
v 0.2032 0.39878 0.0762 
v 0.2032 0.39878 0 
v 0.2032 0.36322 0.0762 
v 0.2032 0.36322 0 
v 0.0508 0.36322 0.0762 
v 0.0508 0.36322 0 
v 0.0508 0.39878 0.0762 
v 0.0508 0.39878 0 
v 0.00762 0.39878 0 
v 0.00762 0.39878 0.0762 
v 0.00762 0.29718 0.0762 
v 0.00762 0.29718 0 
v 0.1524 0.29718 0.0762 
v 0.1524 0.29718 0 
v 0.1524 0.26162 0.0762 
v 0.1524 0.26162 0 
v 0.04318 0.26162 0.0762 
v 0.04318 0.26162 0 
v 0.04318 0.1524 0.0762 
v 0.04318 0.1524 0 
v 0.00762 0.1524 0.0762 
v 0.00762 0.1524 0 
v 0 0.4064 0.0762 
v 0 0 0.0762 
v 0.4064 0 0.0762 
v 0.4064 0.4064 0.0762 
v 0 0.4064 -0.00254 
v 0 0 -0.00254 
v 0.4064 0 -0.00254 
v 0.4064 0.4064 -0.00254 
v 0.0508 0.1016 0 
v 0.16002 0.10922 0 
v 0.1016 0.1016 0 
v 0.1016 0.16002 0 
v 0.1016 0.10922 0 
v 0.16002 0.16002 0 
v 0.3048 0.10922 0 
v 0.29718 0.2032 0 
v 0.3048 0.14478 0 
v 0.1016 0.19558 0 
v 0.0508 0.10922 0 
v 0.2032 0.29718 0 
v 0.29718 0.29718 0 
v 0.2032 0.26162 0 
v 0.26162 0.2032 0 
v 0.19558 0.14478 0 
v 0.26162 0.26162 0 
v 0.19558 0.19558 0 
v 0.3048 0.10922 0.0762 
v 0.3048 0.14478 0.0762 
v 0.16002 0.16002 0.0762 
v 0.16002 0.10922 0.0762 
v 0.19558 0.14478 0.0762 
v 0.1016 0.19558 0.0762 
v 0.1016 0.16002 0.0762 
v 0.19558 0.19558 0.0762 
v 0.26162 0.2032 0.0762 
v 0.29718 0.2032 0.0762 
v 0.29718 0.29718 0.0762 
v 0.26162 0.26162 0.0762 
v 0.2032 0.29718 0.0762 
v 0.2032 0.26162 0.0762 
v 0.1016 0.10922 0.0508 
v 0.0508 0.10922 0.0508 
v 0.0508 0.1016 0.0508 
v 0.1016 0.1016 0.0508 
vn 0 1 0 
vn -1 0 0 
vn 0 -1 0 
vn 0 1 0 
vn -1 0 0 
vn 0 -1 0 
vn 1 0 0 
vn -1 0 0 
vn 0 -1 0 
vn 1 0 0 
vn -1 0 0 
vn 0 -1 0 
vn 1 0 0 
vn 0 1 0 
vn 0 -1 0 
vn 1 1.22465e-16 0 
vn 0 0 1 
vn -1 0 0 
vn 0 -1 0 
vn 1 0 0 
vn 0 1 0 
vn 0 0 -1 
vn 0 0 1 
vn 1 0 0 
vn 0 1 0 
vn -1 0 0 
vn 0 -1 0 
vn 0 0 1 
vn 1 1.22465e-16 0 
vn 0 1 0 
vn -1 0 0 
vn 0 -1 0 
vn 0 1 0 
vn -1 0 0 
vn 2.73185e-16 -1 0 
vn 1 0 0 
vn 0 0 1 
usemtl 0.768627_0.886275_0.952941_0.000000_0.000000
o mesh0
f 1//1 2//1 3//1 
f 3//1 4//1 1//1 
o mesh1
f 1//2 4//2 5//2 
f 5//2 6//2 1//2 
o mesh2
f 7//1 8//1 6//1 
f 6//1 5//1 7//1 
o mesh3
f 3//2 2//2 9//2 
f 9//2 10//2 3//2 
o mesh4
f 11//3 12//3 10//3 
f 10//3 9//3 11//3 
o mesh5
f 13//2 14//2 12//2 
f 12//2 11//2 13//2 
o mesh6
f 15//4 16//4 14//4 
f 14//4 13//4 15//4 
o mesh7
f 17//5 16//5 15//5 
f 15//5 18//5 17//5 
o mesh8
f 17//6 18//6 19//6 
f 19//6 20//6 17//6 
o mesh9
f 21//7 22//7 20//7 
f 20//7 19//7 21//7 
o mesh10
f 23//6 24//6 22//6 
f 22//6 21//6 23//6 
o mesh11
f 25//8 26//8 24//8 
f 24//8 23//8 25//8 
o mesh12
f 26//9 25//9 27//9 
f 27//9 28//9 26//9 
o mesh13
f 29//10 30//10 28//10 
f 28//10 27//10 29//10 
o mesh14
f 31//9 32//9 30//9 
f 30//9 29//9 31//9 
o mesh15
f 33//11 34//11 32//11 
f 32//11 31//11 33//11 
o mesh16
f 35//12 34//12 33//12 
f 33//12 36//12 35//12 
o mesh17
f 35//13 36//13 37//13 
f 37//13 38//13 35//13 
o mesh18
f 39//14 40//14 38//14 
f 38//14 37//14 39//14 
o mesh19
f 41//13 42//13 40//13 
f 40//13 39//13 41//13 
o mesh20
f 43//15 44//15 42//15 
f 42//15 41//15 43//15 
o mesh21
f 45//16 46//16 44//16 
f 44//16 43//16 45//16 
o mesh22
f 47//15 48//15 46//15 
f 46//15 45//15 47//15 
o mesh23
f 7//16 48//16 47//16 
f 47//16 8//16 7//16 
o mesh24
f 49//17 47//17 37//17 
f 47//17 45//17 43//17 
f 43//17 37//17 47//17 
f 50//17 8//17 47//17 
f 47//17 49//17 50//17 
f 50//17 51//17 6//17 
f 52//17 25//17 19//17 
f 21//17 19//17 25//17 
f 6//17 8//17 50//17 
f 6//17 51//17 2//17 
f 25//17 23//17 21//17 
f 52//17 33//17 27//17 
f 2//17 1//17 6//17 
f 51//17 15//17 9//17 
f 27//17 25//17 52//17 
f 29//17 27//17 33//17 
f 9//17 2//17 51//17 
f 11//17 9//17 15//17 
f 33//17 31//17 29//17 
f 49//17 36//17 33//17 
f 15//17 13//17 11//17 
f 52//17 18//17 15//17 
f 33//17 52//17 49//17 
f 15//17 51//17 52//17 
f 39//17 37//17 43//17 
f 37//17 36//17 49//17 
f 19//17 18//17 52//17 
f 43//17 41//17 39//17 
o mesh25
f 53//18 54//18 50//18 
f 50//18 49//18 53//18 
o mesh26
f 54//19 55//19 51//19 
f 51//19 50//19 54//19 
o mesh27
f 56//20 52//20 51//20 
f 51//20 55//20 56//20 
o mesh28
f 56//21 53//21 49//21 
f 49//21 52//21 56//21 
o mesh29
f 55//22 54//22 53//22 
f 53//22 56//22 55//22 
o mesh30
f 48//23 7//23 57//23 
f 7//23 58//23 59//23 
f 60//23 61//23 58//23 
f 59//23 57//23 7//23 
f 58//23 62//23 60//23 
f 4//23 3//23 63//23 
f 63//23 3//23 12//23 
f 61//23 59//23 58//23 
f 58//23 7//23 4//23 
f 12//23 64//23 65//23 
f 46//23 60//23 66//23 
f 60//23 46//23 67//23 
f 63//23 58//23 4//23 
f 3//23 10//23 12//23 
f 67//23 61//23 60//23 
f 68//23 24//23 30//23 
f 28//23 30//23 24//23 
f 24//23 68//23 69//23 
f 12//23 65//23 63//23 
f 66//23 44//23 46//23 
f 40//23 42//23 70//23 
f 24//23 26//23 28//23 
f 69//23 17//23 22//23 
f 7//23 5//23 4//23 
f 46//23 57//23 67//23 
f 70//23 68//23 40//23 
f 17//23 69//23 14//23 
f 14//23 69//23 64//23 
f 69//23 22//23 24//23 
f 66//23 42//23 44//23 
f 66//23 71//23 70//23 
f 35//23 38//23 32//23 
f 32//23 38//23 40//23 
f 64//23 12//23 14//23 
f 17//23 20//23 22//23 
f 42//23 66//23 70//23 
f 40//23 68//23 32//23 
f 30//23 32//23 68//23 
f 32//23 34//23 35//23 
f 72//23 65//23 71//23 
f 57//23 46//23 48//23 
f 65//23 64//23 71//23 
f 71//23 73//23 70//23 
f 71//23 66//23 74//23 
f 71//23 74//23 72//23 
f 14//23 16//23 17//23 
o mesh31
f 75//24 63//24 65//24 
f 65//24 76//24 75//24 
o mesh32
f 77//23 78//23 79//23 
f 75//23 76//23 79//23 
f 79//23 78//23 75//23 
f 80//23 81//23 77//23 
f 77//23 82//23 80//23 
f 79//23 82//23 77//23 
o mesh33
f 76//25 65//25 72//25 
f 72//25 79//25 76//25 
o mesh34
f 79//24 72//24 74//24 
f 74//24 82//24 79//24 
o mesh35
f 74//25 66//25 80//25 
f 80//25 82//25 74//25 
o mesh36
f 80//26 66//26 60//26 
f 60//26 81//26 80//26 
o mesh37
f 81//27 60//27 62//27 
f 62//27 77//27 81//27 
o mesh38
f 77//26 62//26 58//26 
f 58//26 78//26 77//26 
o mesh39
f 78//27 58//27 63//27 
f 63//27 75//27 78//27 
o mesh40
f 83//27 71//27 64//27 
f 64//27 84//27 83//27 
o mesh41
f 84//28 85//28 86//28 
f 87//28 88//28 86//28 
f 86//28 85//28 87//28 
f 86//28 83//28 84//28 
o mesh42
f 84//29 64//29 69//29 
f 69//29 85//29 84//29 
o mesh43
f 85//30 69//30 68//30 
f 68//30 87//30 85//30 
o mesh44
f 87//31 68//31 70//31 
f 70//31 88//31 87//31 
o mesh45
f 88//32 70//32 73//32 
f 73//32 86//32 88//32 
o mesh46
f 86//31 73//31 71//31 
f 71//31 83//31 86//31 
o mesh47
f 89//33 61//33 67//33 
f 67//33 90//33 89//33 
o mesh48
f 90//34 67//34 57//34 
f 57//34 91//34 90//34 
o mesh49
f 91//35 57//35 59//35 
f 59//35 92//35 91//35 
o mesh50
f 92//36 59//36 61//36 
f 61//36 89//36 92//36 
o mesh51
f 92//37 89//37 90//37 
f 90//37 91//37 92//37 
