# OBJ generated by ONSHAPE BY PTC INC, 1.211 Units = meters
mtllib L1M5.mtl
g Part 1
v 0.18542 0.36322 0.0762 
v 0.00762 0.36322 0.0762 
v 0.00762 0.36322 0 
v 0.18542 0.36322 0 
v 0.18542 0.254 0 
v 0.18542 0.254 0.0762 
v 0.22098 0.254 0 
v 0.22098 0.254 0.0762 
v 0.22098 0.39878 0 
v 0.22098 0.39878 0.0762 
v 0.00762 0.29718 0.0762 
v 0.00762 0.29718 0 
v 0.127 0.29718 0.0762 
v 0.127 0.29718 0 
v 0.127 0.26162 0.0762 
v 0.127 0.26162 0 
v 0.04318 0.26162 0.0762 
v 0.04318 0.26162 0 
v 0.04318 0.1524 0.0762 
v 0.04318 0.1524 0 
v 0.00762 0.1524 0.0762 
v 0.00762 0.1524 0 
v 0.00762 0.00762 0 
v 0.00762 0.00762 0.0762 
v 0.1524 0.00762 0.0762 
v 0.1524 0.00762 0 
v 0.1524 0.04318 0.0762 
v 0.1524 0.04318 0 
v 0.3556 0.04318 0.0762 
v 0.3556 0.04318 0 
v 0.3556 0.00762 0.0762 
v 0.3556 0.00762 0 
v 0.39878 0.00762 0 
v 0.39878 0.00762 0.0762 
v 0.39878 0.1016 0.0762 
v 0.39878 0.1016 0 
v 0.36322 0.1016 0.0762 
v 0.36322 0.1016 0 
v 0.36322 0.3048 0.0762 
v 0.36322 0.3048 0 
v 0.39878 0.3048 0.0762 
v 0.39878 0.3048 0 
v 0.39878 0.36322 0 
v 0.39878 0.36322 0.0762 
v 0.3556 0.36322 0 
v 0.3556 0.36322 0.0762 
v 0.3556 0.39878 0.0762 
v 0.3556 0.39878 0 
v 0 0.4064 0.0762 
v 0 0 0.0762 
v 0.4064 0 0.0762 
v 0.4064 0.4064 0.0762 
v 0 0.4064 -0.00254 
v 0 0 -0.00254 
v 0.4064 0 -0.00254 
v 0.4064 0.4064 -0.00254 
v 0.29718 0.10922 0 
v 0.1016 0.16002 0 
v 0.1016 0.10922 0 
v 0.16002 0.10922 0 
v 0.16002 0.16002 0 
v 0.1016 0.1016 0 
v 0.29718 0.3048 0 
v 0.29718 0.254 0 
v 0.0508 0.1016 0 
v 0.0508 0.10922 0 
v 0.26162 0.3048 0 
v 0.1016 0.19558 0 
v 0.26162 0.14478 0 
v 0.26162 0.254 0 
v 0.19558 0.19558 0 
v 0.26162 0.3556 0 
v 0.19558 0.14478 0 
v 0.29718 0.3556 0 
v 0.29718 0.254 0.0762 
v 0.26162 0.254 0.0762 
v 0.16002 0.16002 0.0762 
v 0.16002 0.10922 0.0762 
v 0.19558 0.14478 0.0762 
v 0.29718 0.10922 0.0762 
v 0.26162 0.14478 0.0762 
v 0.1016 0.19558 0.0762 
v 0.1016 0.16002 0.0762 
v 0.19558 0.19558 0.0762 
v 0.26162 0.3048 0.0762 
v 0.29718 0.3048 0.0762 
v 0.29718 0.3556 0.0762 
v 0.26162 0.3556 0.0762 
v 0.1016 0.10922 0.0508 
v 0.0508 0.10922 0.0508 
v 0.0508 0.1016 0.0508 
v 0.1016 0.1016 0.0508 
vn 0 -1 0 
vn -1 -1.22465e-16 0 
vn 1 1.22465e-16 0 
vn 0 1 0 
vn 0 -1 0 
vn 1 1.22465e-16 0 
vn 0 1 0 
vn -1 0 0 
vn 1 0 0 
vn 0 1 0 
vn -1 0 0 
vn 0 -1 0 
vn 0 1 0 
vn -1 0 0 
vn 0 -1 0 
vn 0 0 1 
vn -1 0 0 
vn 0 -1 0 
vn 1 0 0 
vn 0 1 0 
vn 0 0 -1 
vn 0 0 1 
vn 0 1 0 
vn 1 1.22465e-16 0 
vn 0 -1 0 
vn -1 -1.22465e-16 0 
vn 0 1 0 
vn 1 1.22465e-16 0 
vn -1 -1.22465e-16 0 
vn 0 -1 0 
vn 1 1.22465e-16 0 
vn 0 1 0 
vn -1 -1.22465e-16 0 
vn 0 0 1 
vn 0 1 0 
vn -1 0 0 
vn 2.73185e-16 -1 0 
vn 1 0 0 
vn 0 0 1 
usemtl 0.768627_0.886275_0.952941_0.000000_0.000000
o mesh0
f 1//1 2//1 3//1 
f 3//1 4//1 1//1 
o mesh1
f 1//2 4//2 5//2 
f 5//2 6//2 1//2 
o mesh2
f 6//1 5//1 7//1 
f 7//1 8//1 6//1 
o mesh3
f 8//3 7//3 9//3 
f 9//3 10//3 8//3 
o mesh4
f 3//3 2//3 11//3 
f 11//3 12//3 3//3 
o mesh5
f 13//4 14//4 12//4 
f 12//4 11//4 13//4 
o mesh6
f 15//3 16//3 14//3 
f 14//3 13//3 15//3 
o mesh7
f 17//5 18//5 16//5 
f 16//5 15//5 17//5 
o mesh8
f 19//6 20//6 18//6 
f 18//6 17//6 19//6 
o mesh9
f 21//5 22//5 20//5 
f 20//5 19//5 21//5 
o mesh10
f 23//6 22//6 21//6 
f 21//6 24//6 23//6 
o mesh11
f 23//7 24//7 25//7 
f 25//7 26//7 23//7 
o mesh12
f 27//8 28//8 26//8 
f 26//8 25//8 27//8 
o mesh13
f 29//7 30//7 28//7 
f 28//7 27//7 29//7 
o mesh14
f 31//9 32//9 30//9 
f 30//9 29//9 31//9 
o mesh15
f 33//10 32//10 31//10 
f 31//10 34//10 33//10 
o mesh16
f 33//11 34//11 35//11 
f 35//11 36//11 33//11 
o mesh17
f 37//12 38//12 36//12 
f 36//12 35//12 37//12 
o mesh18
f 39//11 40//11 38//11 
f 38//11 37//11 39//11 
o mesh19
f 41//13 42//13 40//13 
f 40//13 39//13 41//13 
o mesh20
f 43//14 42//14 41//14 
f 41//14 44//14 43//14 
o mesh21
f 45//15 43//15 44//15 
f 44//15 46//15 45//15 
o mesh22
f 47//14 48//14 45//14 
f 45//14 46//14 47//14 
o mesh23
f 48//15 47//15 10//15 
f 10//15 9//15 48//15 
o mesh24
f 49//16 21//16 11//16 
f 21//16 19//16 17//16 
f 17//16 11//16 21//16 
f 50//16 24//16 21//16 
f 21//16 49//16 50//16 
f 50//16 31//16 25//16 
f 25//16 24//16 50//16 
f 27//16 25//16 31//16 
f 31//16 29//16 27//16 
f 51//16 34//16 31//16 
f 52//16 49//16 10//16 
f 49//16 2//16 1//16 
f 31//16 50//16 51//16 
f 51//16 41//16 35//16 
f 47//16 46//16 44//16 
f 1//16 10//16 49//16 
f 35//16 34//16 51//16 
f 37//16 35//16 41//16 
f 8//16 10//16 1//16 
f 10//16 47//16 52//16 
f 41//16 39//16 37//16 
f 52//16 44//16 41//16 
f 44//16 52//16 47//16 
f 41//16 51//16 52//16 
f 13//16 11//16 17//16 
f 11//16 2//16 49//16 
f 1//16 6//16 8//16 
f 17//16 15//16 13//16 
o mesh25
f 53//17 54//17 50//17 
f 50//17 49//17 53//17 
o mesh26
f 54//18 55//18 51//18 
f 51//18 50//18 54//18 
o mesh27
f 56//19 52//19 51//19 
f 51//19 55//19 56//19 
o mesh28
f 56//20 53//20 49//20 
f 49//20 52//20 56//20 
o mesh29
f 55//21 54//21 53//21 
f 53//21 56//21 55//21 
o mesh30
f 28//22 30//22 57//22 
f 58//22 59//22 60//22 
f 57//22 60//22 28//22 
f 57//22 30//22 38//22 
f 60//22 61//22 58//22 
f 60//22 62//22 28//22 
f 38//22 63//22 64//22 
f 22//22 23//22 65//22 
f 62//22 65//22 28//22 
f 30//22 36//22 38//22 
f 65//22 66//22 22//22 
f 33//22 36//22 30//22 
f 38//22 64//22 57//22 
f 66//22 16//22 20//22 
f 23//22 26//22 28//22 
f 59//22 62//22 60//22 
f 28//22 65//22 23//22 
f 5//22 14//22 16//22 
f 66//22 59//22 58//22 
f 9//22 7//22 67//22 
f 66//22 20//22 22//22 
f 68//22 7//22 5//22 
f 58//22 68//22 66//22 
f 69//22 70//22 71//22 
f 67//22 72//22 9//22 
f 3//22 12//22 14//22 
f 16//22 18//22 20//22 
f 68//22 16//22 66//22 
f 63//22 67//22 70//22 
f 71//22 73//22 69//22 
f 48//22 9//22 72//22 
f 7//22 71//22 67//22 
f 43//22 45//22 40//22 
f 14//22 4//22 3//22 
f 16//22 68//22 5//22 
f 70//22 67//22 71//22 
f 7//22 68//22 71//22 
f 40//22 42//22 43//22 
f 40//22 74//22 63//22 
f 30//22 32//22 33//22 
f 72//22 45//22 48//22 
f 63//22 38//22 40//22 
f 70//22 64//22 63//22 
f 45//22 72//22 74//22 
f 45//22 74//22 40//22 
f 14//22 5//22 4//22 
o mesh31
f 75//23 64//23 70//23 
f 70//23 76//23 75//23 
o mesh32
f 77//22 78//22 79//22 
f 80//22 81//22 79//22 
f 79//22 78//22 80//22 
f 75//22 76//22 81//22 
f 81//22 80//22 75//22 
f 82//22 83//22 77//22 
f 77//22 84//22 82//22 
f 79//22 84//22 77//22 
o mesh33
f 80//24 57//24 64//24 
f 64//24 75//24 80//24 
o mesh34
f 78//25 60//25 57//25 
f 57//25 80//25 78//25 
o mesh35
f 77//26 61//26 60//26 
f 60//26 78//26 77//26 
o mesh36
f 83//25 58//25 61//25 
f 61//25 77//25 83//25 
o mesh37
f 82//26 68//26 58//26 
f 58//26 83//26 82//26 
o mesh38
f 82//27 84//27 71//27 
f 71//27 68//27 82//27 
o mesh39
f 79//28 73//28 71//28 
f 71//28 84//28 79//28 
o mesh40
f 81//27 69//27 73//27 
f 73//27 79//27 81//27 
o mesh41
f 76//29 70//29 69//29 
f 69//29 81//29 76//29 
o mesh42
f 85//30 67//30 63//30 
f 63//30 86//30 85//30 
o mesh43
f 86//31 63//31 74//31 
f 74//31 87//31 86//31 
o mesh44
f 87//32 74//32 72//32 
f 72//32 88//32 87//32 
o mesh45
f 88//33 72//33 67//33 
f 67//33 85//33 88//33 
o mesh46
f 88//34 85//34 86//34 
f 86//34 87//34 88//34 
o mesh47
f 89//35 59//35 66//35 
f 66//35 90//35 89//35 
o mesh48
f 90//36 66//36 65//36 
f 65//36 91//36 90//36 
o mesh49
f 91//37 65//37 62//37 
f 62//37 92//37 91//37 
o mesh50
f 92//38 62//38 59//38 
f 59//38 89//38 92//38 
o mesh51
f 92//39 89//39 90//39 
f 90//39 91//39 92//39 
