# OBJ generated by ONSHAPE BY PTC INC, 1.217 Units = meters
mtllib L2M1.mtl
g Part 1
v 0.18542 0.00762 0.0762 
v 0.18542 0.00762 0 
v 0.12192 0.00762 0 
v 0.11938 0.00762 0.0762 
v 0.11938 0.00762 0 
v 0.11938 0.0508 0.0762 
v 0.11938 0.0508 0 
v 0.08382 0.0508 0 
v 0.08382 0.0508 0.0762 
v 0.08382 0.00762 0 
v 0.08382 0.00762 0.0762 
v 0.00762 0.00762 0 
v 0.00762 0.00762 0.0762 
v 0.00762 0.21082 0.0762 
v 0.00762 0.05461 0 
v 0.00762 0.21082 0 
v 0.08382 0.21082 0 
v 0.08382 0.21082 0.0762 
v 0.08382 0.1016 0 
v 0.08382 0.1016 0.0762 
v 0.11938 0.1016 0 
v 0.11938 0.1016 0.0762 
v 0.11938 0.24638 0 
v 0.11938 0.24638 0.0762 
v 0.04318 0.24638 0 
v 0.04318 0.24638 0.0762 
v 0.04318 0.30861 0 
v 0.04318 0.3556 0.0762 
v 0.04318 0.3556 0 
v 0.00762 0.3556 0 
v 0.00762 0.3556 0.0762 
v 0.00762 0.61722 0.0762 
v 0.00762 0.508 0 
v 0.00762 0.5842 0 
v 0.00762 0.38481 0 
v 0.00762 0.61722 0 
v 0.11938 0.61722 0.0762 
v 0.11938 0.61722 0 
v 0.11938 0.6858 0 
v 0.11938 0.6858 0.0762 
v 0.08382 0.6858 0 
v 0.08382 0.6858 0.0762 
v 0.08382 0.65278 0 
v 0.08382 0.65278 0.0762 
v 0.00762 0.65278 0 
v 0.00762 0.65278 0.0762 
v 0.00762 0.74549 0 
v 0.00762 0.80518 0.0762 
v 0.00762 0.80518 0 
v 0.05842 0.80518 0 
v 0.05842 0.80518 0.0762 
v 0.05842 0.74549 0 
v 0.05842 0.7366 0.0762 
v 0.05842 0.7366 0 
v 0.09398 0.7366 0 
v 0.09398 0.7366 0.0762 
v 0.09398 0.76962 0.0762 
v 0.09398 0.74549 0 
v 0.09398 0.76962 0 
v 0.12192 0.76962 0 
v 0.254 0.76962 0 
v 0.28702 0.76962 0.0762 
v 0.28702 0.76962 0 
v 0.28702 0.71882 0.0762 
v 0.28702 0.74549 0 
v 0.28702 0.71882 0 
v 0.4318 0.71882 0.0762 
v 0.33401 0.71882 0 
v 0.4318 0.71882 0 
v 0.4318 0.74549 0 
v 0.4318 0.75438 0.0762 
v 0.4318 0.75438 0 
v 0.33401 0.75438 0 
v 0.32258 0.75438 0.0762 
v 0.32258 0.75438 0 
v 0.32258 0.80518 0 
v 0.32258 0.80518 0.0762 
v 0.80518 0.80518 0.0762 
v 0.4572 0.80518 0 
v 0.68199 0.80518 0 
v 0.33401 0.80518 0 
v 0.80518 0.80518 0 
v 0.80518 0.62738 0.0762 
v 0.80518 0.74549 0 
v 0.80518 0.62738 0 
v 0.72898 0.62738 0.0762 
v 0.72898 0.62738 0 
v 0.72898 0.74549 0 
v 0.72898 0.762 0.0762 
v 0.72898 0.762 0 
v 0.69342 0.762 0 
v 0.69342 0.762 0.0762 
v 0.69342 0.59182 0.0762 
v 0.69342 0.74549 0 
v 0.69342 0.59182 0 
v 0.80518 0.59182 0 
v 0.80518 0.59182 0.0762 
v 0.80518 0.29718 0.0762 
v 0.80518 0.38481 0 
v 0.80518 0.30861 0 
v 0.80518 0.508 0 
v 0.80518 0.5842 0 
v 0.80518 0.29718 0 
v 0.69342 0.29718 0.0762 
v 0.69342 0.29718 0 
v 0.69342 0.16002 0 
v 0.69342 0.16002 0.0762 
v 0.762 0.16002 0 
v 0.762 0.16002 0.0762 
v 0.762 0.19558 0 
v 0.762 0.19558 0.0762 
v 0.72898 0.19558 0 
v 0.72898 0.19558 0.0762 
v 0.72898 0.26162 0 
v 0.72898 0.26162 0.0762 
v 0.80518 0.26162 0 
v 0.80518 0.26162 0.0762 
v 0.80518 0.05461 0 
v 0.80518 0.00762 0.0762 
v 0.80518 0.00762 0 
v 0.75438 0.00762 0 
v 0.75438 0.00762 0.0762 
v 0.75438 0.05461 0 
v 0.75438 0.09398 0.0762 
v 0.75438 0.09398 0 
v 0.6858 0.09398 0 
v 0.6858 0.09398 0.0762 
v 0.6858 0.05842 0 
v 0.6858 0.05842 0.0762 
v 0.71882 0.05842 0 
v 0.71882 0.05842 0.0762 
v 0.71882 0.00762 0.0762 
v 0.71882 0.05461 0 
v 0.71882 0.00762 0 
v 0.635 0.00762 0.0762 
v 0.68199 0.00762 0 
v 0.635 0.00762 0 
v 0.635 0.04318 0 
v 0.635 0.04318 0.0762 
v 0.5842 0.04318 0 
v 0.5842 0.04318 0.0762 
v 0.5842 0.00762 0 
v 0.5842 0.00762 0.0762 
v 0.32258 0.00762 0.0762 
v 0.4572 0.00762 0 
v 0.33401 0.00762 0 
v 0.32258 0.00762 0 
v 0.18542 0.1016 0.0762 
v 0.18542 0.05461 0 
v 0.18542 0.1016 0 
v 0.22098 0.1016 0.0762 
v 0.22098 0.1016 0 
v 0.22098 0.04318 0.0762 
v 0.22098 0.05461 0 
v 0.22098 0.04318 0 
v 0.28702 0.04318 0.0762 
v 0.254 0.04318 0 
v 0.28702 0.04318 0 
v 0.28702 0.14478 0.0762 
v 0.28702 0.14478 0 
v 0.28702 0.05461 0 
v 0.52578 0.14478 0.0762 
v 0.4572 0.14478 0 
v 0.33401 0.14478 0 
v 0.52578 0.14478 0 
v 0.52578 0.0508 0.0762 
v 0.52578 0.05461 0 
v 0.52578 0.0508 0 
v 0.49022 0.0508 0.0762 
v 0.49022 0.0508 0 
v 0.32258 0.10922 0.0762 
v 0.32258 0.05461 0 
v 0.32258 0.10922 0 
v 0.33401 0.10922 0 
v 0.4572 0.10922 0 
v 0.49022 0.10922 0.0762 
v 0.49022 0.10922 0 
v 0.49022 0.05461 0 
v 0.8128 0.8128 0.0762 
v 0.8128 0 0.0762 
v -1.66533e-16 0.8128 0.0762 
v 0 0 0.0762 
v -1.66533e-16 0.8128 -0.00254 
v 0 0 -0.00254 
v 0.8128 0 -0.00254 
v 0.8128 0.8128 -0.00254 
v 0.381 0.46482 0 
v 0.381 0.4572 0 
v 0.4318 0.4572 0 
v 0.4318 0.46482 0 
v 0.72898 0.508 0 
v 0.69342 0.508 0 
v 0.68199 0.39878 0 
v 0.69342 0.39878 0 
v 0.72898 0.38481 0 
v 0.72898 0.36322 0 
v 0.52578 0.31242 0 
v 0.68199 0.36322 0 
v 0.52578 0.36322 0 
v 0.4572 0.34798 0 
v 0.49022 0.34798 0 
v 0.49022 0.38481 0 
v 0.4572 0.51562 0 
v 0.49022 0.508 0 
v 0.33401 0.61722 0 
v 0.43942 0.5842 0 
v 0.254 0.61722 0 
v 0.254 0.65278 0 
v 0.22098 0.7366 0 
v 0.18542 0.7366 0 
v 0.18542 0.61722 0 
v 0.33401 0.65278 0 
v 0.4572 0.65278 0 
v 0.62738 0.55118 0 
v 0.47498 0.5842 0 
v 0.47498 0.55118 0 
v 0.52578 0.508 0 
v 0.52578 0.39878 0 
v 0.59182 0.4572 0 
v 0.62738 0.4572 0 
v 0.62738 0.508 0 
v 0.52578 0.51562 0 
v 0.59182 0.508 0 
v 0.33401 0.21082 0 
v 0.254 0.21082 0 
v 0.254 0.24638 0 
v 0.33401 0.24638 0 
v 0.4572 0.24638 0 
v 0.59182 0.1016 0 
v 0.59182 0.21082 0 
v 0.4572 0.21082 0 
v 0.62738 0.1016 0 
v 0.62738 0.3048 0 
v 0.59182 0.3048 0 
v 0.59182 0.24638 0 
v 0.28702 0.31242 0 
v 0.33401 0.31242 0 
v 0.28702 0.38481 0 
v 0.28702 0.55118 0 
v 0.28702 0.508 0 
v 0.4318 0.51562 0 
v 0.381 0.51562 0 
v 0.381 0.55118 0 
v 0.4318 0.55118 0 
v 0.33401 0.55118 0 
v 0.33401 0.51562 0 
v 0.32258 0.51562 0 
v 0.32258 0.508 0 
v 0.32258 0.38481 0 
v 0.32258 0.34798 0 
v 0.33401 0.34798 0 
v 0.381 0.34798 0 
v 0.4318 0.34798 0 
v 0.4318 0.31242 0 
v 0.381 0.31242 0 
v 0.4572 0.31242 0 
v 0.18542 0.24638 0 
v 0.17018 0.3048 0 
v 0.13462 0.3048 0 
v 0.17018 0.30861 0 
v 0.18542 0.1524 0 
v 0.22098 0.1524 0 
v 0.22098 0.21082 0 
v 0.13462 0.30861 0 
v 0.12192 0.51562 0 
v 0.18542 0.508 0 
v 0.09398 0.51562 0 
v 0.09398 0.508 0 
v 0.09398 0.47498 0 
v 0.12192 0.47498 0 
v 0.13462 0.39878 0 
v 0.18542 0.39878 0 
v 0.1524 0.43942 0 
v 0.1524 0.47498 0 
v 0.13462 0.38481 0 
v 0.12192 0.43942 0 
v 0.05842 0.43942 0 
v 0.05842 0.55118 0 
v 0.05842 0.508 0 
v 0.22098 0.55118 0 
v 0.12192 0.55118 0 
v 0.22098 0.508 0 
v 0.22098 0.38481 0 
v 0.22098 0.36322 0 
v 0.57658 0.75438 0 
v 0.4826 0.75438 0 
v 0.4826 0.74549 0 
v 0.54102 0.61722 0 
v 0.54102 0.71882 0 
v 0.47498 0.65278 0 
v 0.4826 0.71882 0 
v 0.635 0.61722 0 
v 0.635 0.65278 0 
v 0.57658 0.74549 0 
v 0.57658 0.65278 0 
v 0.17018 0.36322 0 
v 0.18542 0.51562 0 
v 0.43942 0.55118 0 
v 0.59182 0.51562 0 
v 0.22098 0.65278 0 
v 0.43942 0.61722 0 
v 0.49022 0.51562 0 
v 0.33401 0.05461 0 
v 0.4572 0.508 0 
v 0.33401 0.508 0 
v 0.33401 0.38481 0 
v 0.4572 0.38481 0 
v 0.68199 0.5842 0 
v 0.68199 0.508 0 
v 0.68199 0.05461 0 
v 0.68199 0.30861 0 
v 0.68199 0.74549 0 
v 0.4572 0.74549 0 
v 0.254 0.74549 0 
v 0.12192 0.74549 0 
v 0.12192 0.5842 0 
v 0.12192 0.30861 0 
v 0.12192 0.38481 0 
v 0.12192 0.05461 0 
v 0.254 0.05461 0 
v 0.4572 0.05461 0 
v 0.4572 0.30861 0 
v 0.33401 0.5842 0 
v 0.254 0.5842 0 
v 0.254 0.30861 0 
v 0.33401 0.30861 0 
v 0.254 0.38481 0 
v 0.254 0.508 0 
v 0.12192 0.508 0 
v 0.52578 0.39878 0.0762 
v 0.52578 0.51562 0.0762 
v 0.62738 0.4572 0.0762 
v 0.62738 0.55118 0.0762 
v 0.59182 0.51562 0.0762 
v 0.49022 0.51562 0.0762 
v 0.52578 0.36322 0.0762 
v 0.72898 0.36322 0.0762 
v 0.69342 0.39878 0.0762 
v 0.72898 0.508 0.0762 
v 0.69342 0.508 0.0762 
v 0.4318 0.51562 0.0762 
v 0.47498 0.55118 0.0762 
v 0.43942 0.55118 0.0762 
v 0.47498 0.65278 0.0762 
v 0.43942 0.61722 0.0762 
v 0.49022 0.34798 0.0762 
v 0.52578 0.31242 0.0762 
v 0.22098 0.65278 0.0762 
v 0.18542 0.61722 0.0762 
v 0.4318 0.31242 0.0762 
v 0.18542 0.7366 0.0762 
v 0.59182 0.4572 0.0762 
v 0.4318 0.55118 0.0762 
v 0.4318 0.34798 0.0762 
v 0.22098 0.7366 0.0762 
v 0.18542 0.24638 0.0762 
v 0.59182 0.24638 0.0762 
v 0.62738 0.1016 0.0762 
v 0.59182 0.21082 0.0762 
v 0.22098 0.21082 0.0762 
v 0.18542 0.1524 0.0762 
v 0.22098 0.1524 0.0762 
v 0.62738 0.3048 0.0762 
v 0.59182 0.3048 0.0762 
v 0.59182 0.1016 0.0762 
v 0.4318 0.46482 0.0508 
v 0.381 0.46482 0.0508 
v 0.381 0.4572 0.0508 
v 0.4318 0.4572 0.0508 
v 0.381 0.31242 0.0762 
v 0.381 0.34798 0.0762 
v 0.381 0.55118 0.0762 
v 0.28702 0.55118 0.0762 
v 0.32258 0.51562 0.0762 
v 0.28702 0.31242 0.0762 
v 0.32258 0.34798 0.0762 
v 0.381 0.51562 0.0762 
v 0.13462 0.3048 0.0762 
v 0.17018 0.3048 0.0762 
v 0.17018 0.36322 0.0762 
v 0.22098 0.36322 0.0762 
v 0.18542 0.39878 0.0762 
v 0.22098 0.55118 0.0762 
v 0.18542 0.51562 0.0762 
v 0.05842 0.55118 0.0762 
v 0.09398 0.51562 0.0762 
v 0.05842 0.43942 0.0762 
v 0.09398 0.47498 0.0762 
v 0.1524 0.43942 0.0762 
v 0.1524 0.47498 0.0762 
v 0.13462 0.39878 0.0762 
v 0.635 0.61722 0.0762 
v 0.635 0.65278 0.0762 
v 0.57658 0.65278 0.0762 
v 0.57658 0.75438 0.0762 
v 0.54102 0.71882 0.0762 
v 0.4826 0.75438 0.0762 
v 0.4826 0.71882 0.0762 
v 0.54102 0.61722 0.0762 
vn 0 1 0 
vn 1 1.22465e-16 0 
vn -1 -1.22465e-16 0 
vn 0 1 0 
vn 1 0 0 
vn 0 -1 0 
vn -1 -1.22465e-16 0 
vn 1 1.22465e-16 0 
vn 0 1 0 
vn 0 -1 0 
vn 1 1.22465e-16 0 
vn 0 1 0 
vn -1 -1.22465e-16 0 
vn 1 0 0 
vn 0 -1 0 
vn -1 -1.22465e-16 0 
vn 1 1.22465e-16 0 
vn 0 -1 0 
vn -1 -1.22465e-16 0 
vn 1 0 0 
vn 0 1 0 
vn 0 -1 0 
vn -1 -2.73185e-16 0 
vn 0 1 0 
vn 1 1.22465e-16 0 
vn -1 -1.22465e-16 0 
vn 0 -1 0 
vn 0 1 0 
vn -1 -1.22465e-16 0 
vn 0 -1 0 
vn 1 0 0 
vn 0 1 0 
vn 0 -1 0 
vn -1 -2.73185e-16 0 
vn 0 1 0 
vn 1 1.22465e-16 0 
vn -1 0 0 
vn 0 -1 0 
vn 0 1 0 
vn 1 0 0 
vn -1 0 0 
vn 0 1 0 
vn 1 1.22465e-16 0 
vn -1 -1.22465e-16 0 
vn 0 1 0 
vn 1 1.22465e-16 0 
vn 0 -1 0 
vn -1 -1.22465e-16 0 
vn 0 0 1 
vn 0 -1 0 
vn 1 2.73185e-16 0 
vn 0 1 0 
vn 0 0 -1 
vn 0 0 1 
vn 1 1.22465e-16 0 
vn 0 1 0 
vn -1 0 0 
vn 0 -1 0 
vn 1 1.22465e-16 0 
vn 0 1 0 
vn -1 -1.22465e-16 0 
vn 0 -1 0 
vn 0 1 0 
vn -1 -1.22465e-16 0 
vn 0 -1 0 
vn 1 1.22465e-16 0 
vn -1 -1.22465e-16 0 
vn 0 1 0 
vn 0 0 1 
vn 0 -1 0 
vn 1 1.22465e-16 0 
vn -1 -1.22465e-16 0 
vn 0 -1 0 
vn 1 1.22465e-16 0 
vn -1 -1.22465e-16 0 
vn 0 1 0 
vn 0 -1 0 
vn 1 0 0 
vn 0 0 1 
vn 0 -1 0 
vn -1 -1.22465e-16 0 
vn 0 1 0 
vn 1 0 0 
vn 0 -1 0 
vn 0 1 0 
vn 0 0 1 
vn 1 1.22465e-16 0 
vn 0 -1 0 
vn 0 1 0 
vn -1 -1.22465e-16 0 
vn 0 -1 0 
vn 1 0 0 
vn 0 1 0 
vn 0 -1 0 
vn -1 -1.22465e-16 0 
vn 0 1 0 
vn 1 0 0 
vn 0 0 1 
vn 0 1 0 
vn 1 1.22465e-16 0 
vn -1 0 0 
vn 0 -1 0 
usemtl 0.768627_0.886275_0.952941_0.000000_0.000000
o mesh0
f 1//1 2//1 3//1 
f 3//1 4//1 1//1 
f 3//1 5//1 4//1 
o mesh1
f 6//2 4//2 5//2 
f 5//2 7//2 6//2 
o mesh2
f 6//1 7//1 8//1 
f 8//1 9//1 6//1 
o mesh3
f 10//3 11//3 9//3 
f 9//3 8//3 10//3 
o mesh4
f 12//4 13//4 11//4 
f 11//4 10//4 12//4 
o mesh5
f 14//5 13//5 15//5 
f 13//5 12//5 15//5 
f 15//5 16//5 14//5 
o mesh6
f 14//6 16//6 17//6 
f 17//6 18//6 14//6 
o mesh7
f 18//7 17//7 19//7 
f 19//7 20//7 18//7 
o mesh8
f 20//6 19//6 21//6 
f 21//6 22//6 20//6 
o mesh9
f 22//8 21//8 23//8 
f 23//8 24//8 22//8 
o mesh10
f 24//9 23//9 25//9 
f 25//9 26//9 24//9 
o mesh11
f 26//8 25//8 27//8 
f 27//8 28//8 26//8 
f 27//8 29//8 28//8 
o mesh12
f 28//9 29//9 30//9 
f 30//9 31//9 28//9 
o mesh13
f 32//8 33//8 34//8 
f 31//8 35//8 33//8 
f 33//8 32//8 31//8 
f 31//8 30//8 35//8 
f 34//8 36//8 32//8 
o mesh14
f 37//10 32//10 36//10 
f 36//10 38//10 37//10 
o mesh15
f 37//11 38//11 39//11 
f 39//11 40//11 37//11 
o mesh16
f 40//12 39//12 41//12 
f 41//12 42//12 40//12 
o mesh17
f 42//13 41//13 43//13 
f 43//13 44//13 42//13 
o mesh18
f 44//12 43//12 45//12 
f 45//12 46//12 44//12 
o mesh19
f 46//14 45//14 47//14 
f 47//14 48//14 46//14 
f 47//14 49//14 48//14 
o mesh20
f 49//15 50//15 51//15 
f 51//15 48//15 49//15 
o mesh21
f 51//16 50//16 52//16 
f 52//16 53//16 51//16 
f 52//16 54//16 53//16 
o mesh22
f 53//15 54//15 55//15 
f 55//15 56//15 53//15 
o mesh23
f 57//17 56//17 58//17 
f 56//17 55//17 58//17 
f 58//17 59//17 57//17 
o mesh24
f 57//18 60//18 61//18 
f 61//18 62//18 57//18 
f 57//18 59//18 60//18 
f 61//18 63//18 62//18 
o mesh25
f 64//19 62//19 65//19 
f 62//19 63//19 65//19 
f 65//19 66//19 64//19 
o mesh26
f 67//18 64//18 68//18 
f 64//18 66//18 68//18 
f 68//18 69//18 67//18 
o mesh27
f 67//20 69//20 70//20 
f 70//20 71//20 67//20 
f 70//20 72//20 71//20 
o mesh28
f 71//21 72//21 73//21 
f 73//21 74//21 71//21 
f 73//21 75//21 74//21 
o mesh29
f 74//20 75//20 76//20 
f 76//20 77//20 74//20 
o mesh30
f 78//22 77//22 79//22 
f 79//22 80//22 78//22 
f 77//22 81//22 79//22 
f 77//22 76//22 81//22 
f 80//22 82//22 78//22 
o mesh31
f 83//23 78//23 84//23 
f 78//23 82//23 84//23 
f 84//23 85//23 83//23 
o mesh32
f 86//24 83//24 85//24 
f 85//24 87//24 86//24 
o mesh33
f 86//25 87//25 88//25 
f 88//25 89//25 86//25 
f 88//25 90//25 89//25 
o mesh34
f 89//24 90//24 91//24 
f 91//24 92//24 89//24 
o mesh35
f 93//26 92//26 94//26 
f 92//26 91//26 94//26 
f 94//26 95//26 93//26 
o mesh36
f 95//27 96//27 97//27 
f 97//27 93//27 95//27 
o mesh37
f 98//26 99//26 100//26 
f 97//26 101//26 99//26 
f 99//26 98//26 97//26 
f 97//26 102//26 101//26 
f 97//26 96//26 102//26 
f 100//26 103//26 98//26 
o mesh38
f 104//28 98//28 103//28 
f 103//28 105//28 104//28 
o mesh39
f 104//29 105//29 106//29 
f 106//29 107//29 104//29 
o mesh40
f 107//30 106//30 108//30 
f 108//30 109//30 107//30 
o mesh41
f 109//31 108//31 110//31 
f 110//31 111//31 109//31 
o mesh42
f 111//32 110//32 112//32 
f 112//32 113//32 111//32 
o mesh43
f 113//31 112//31 114//31 
f 114//31 115//31 113//31 
o mesh44
f 114//33 116//33 117//33 
f 117//33 115//33 114//33 
o mesh45
f 117//34 116//34 118//34 
f 118//34 119//34 117//34 
f 118//34 120//34 119//34 
o mesh46
f 119//35 120//35 121//35 
f 121//35 122//35 119//35 
o mesh47
f 122//36 121//36 123//36 
f 123//36 124//36 122//36 
f 123//36 125//36 124//36 
o mesh48
f 124//35 125//35 126//35 
f 126//35 127//35 124//35 
o mesh49
f 127//37 126//37 128//37 
f 128//37 129//37 127//37 
o mesh50
f 129//38 128//38 130//38 
f 130//38 131//38 129//38 
o mesh51
f 132//37 131//37 133//37 
f 131//37 130//37 133//37 
f 133//37 134//37 132//37 
o mesh52
f 135//39 132//39 136//39 
f 132//39 134//39 136//39 
f 136//39 137//39 135//39 
o mesh53
f 135//40 137//40 138//40 
f 138//40 139//40 135//40 
o mesh54
f 139//39 138//39 140//39 
f 140//39 141//39 139//39 
o mesh55
f 141//41 140//41 142//41 
f 142//41 143//41 141//41 
o mesh56
f 144//42 143//42 145//42 
f 145//42 146//42 144//42 
f 143//42 142//42 145//42 
f 146//42 147//42 144//42 
o mesh57
f 1//41 148//41 149//41 
f 148//41 150//41 149//41 
f 149//41 2//41 1//41 
o mesh58
f 151//42 152//42 150//42 
f 150//42 148//42 151//42 
o mesh59
f 151//43 153//43 154//43 
f 153//43 155//43 154//43 
f 154//43 152//43 151//43 
o mesh60
f 153//42 156//42 157//42 
f 156//42 158//42 157//42 
f 157//42 155//42 153//42 
o mesh61
f 159//44 160//44 161//44 
f 161//44 156//44 159//44 
f 161//44 158//44 156//44 
o mesh62
f 159//45 162//45 163//45 
f 163//45 164//45 159//45 
f 162//45 165//45 163//45 
f 164//45 160//45 159//45 
o mesh63
f 162//46 166//46 167//46 
f 166//46 168//46 167//46 
f 167//46 165//46 162//46 
o mesh64
f 169//47 170//47 168//47 
f 168//47 166//47 169//47 
o mesh65
f 171//46 144//46 172//46 
f 144//46 147//46 172//46 
f 172//46 173//46 171//46 
o mesh66
f 171//47 174//47 175//47 
f 175//47 176//47 171//47 
f 171//47 173//47 174//47 
f 175//47 177//47 176//47 
o mesh67
f 176//48 177//48 178//48 
f 178//48 169//48 176//48 
f 178//48 170//48 169//48 
o mesh68
f 179//49 51//49 77//49 
f 77//49 51//49 57//49 
f 62//49 64//49 74//49 
f 67//49 71//49 74//49 
f 179//49 78//49 83//49 
f 57//49 62//49 77//49 
f 74//49 64//49 67//49 
f 77//49 78//49 179//49 
f 83//49 180//49 179//49 
f 53//49 56//49 57//49 
f 57//49 51//49 53//49 
f 181//49 48//49 51//49 
f 51//49 179//49 181//49 
f 181//49 32//49 46//49 
f 46//49 48//49 181//49 
f 32//49 37//49 44//49 
f 44//49 46//49 32//49 
f 40//49 42//49 44//49 
f 44//49 37//49 40//49 
f 181//49 14//49 31//49 
f 31//49 32//49 181//49 
f 31//49 14//49 26//49 
f 26//49 28//49 31//49 
f 26//49 14//49 18//49 
f 22//49 24//49 18//49 
f 18//49 24//49 26//49 
f 74//49 77//49 62//49 
f 182//49 13//49 14//49 
f 182//49 4//49 11//49 
f 14//49 181//49 182//49 
f 4//49 6//49 11//49 
f 11//49 13//49 182//49 
f 182//49 144//49 1//49 
f 1//49 144//49 156//49 
f 6//49 9//49 11//49 
f 156//49 153//49 1//49 
f 148//49 1//49 153//49 
f 1//49 4//49 182//49 
f 182//49 135//49 143//49 
f 166//49 162//49 176//49 
f 159//49 171//49 176//49 
f 18//49 20//49 22//49 
f 156//49 144//49 171//49 
f 182//49 132//49 135//49 
f 176//49 162//49 159//49 
f 171//49 159//49 156//49 
f 182//49 122//49 132//49 
f 153//49 151//49 148//49 
f 182//49 119//49 122//49 
f 143//49 144//49 182//49 
f 135//49 141//49 143//49 
f 127//49 129//49 131//49 
f 176//49 169//49 166//49 
f 131//49 124//49 127//49 
f 122//49 131//49 132//49 
f 180//49 83//49 97//49 
f 104//49 107//49 113//49 
f 135//49 139//49 141//49 
f 180//49 117//49 119//49 
f 97//49 98//49 180//49 
f 113//49 115//49 104//49 
f 109//49 111//49 113//49 
f 119//49 182//49 180//49 
f 98//49 115//49 117//49 
f 113//49 107//49 109//49 
f 98//49 117//49 180//49 
f 131//49 122//49 124//49 
f 97//49 83//49 86//49 
f 92//49 93//49 86//49 
f 86//49 93//49 97//49 
f 115//49 98//49 104//49 
f 86//49 89//49 92//49 
o mesh69
f 183//48 184//48 182//48 
f 182//48 181//48 183//48 
o mesh70
f 184//50 185//50 180//50 
f 180//50 182//50 184//50 
o mesh71
f 185//51 186//51 179//51 
f 179//51 180//51 185//51 
o mesh72
f 186//52 183//52 181//52 
f 181//52 179//52 186//52 
o mesh73
f 186//53 185//53 184//53 
f 184//53 183//53 186//53 
o mesh74
f 303//54 146//54 145//54 
f 304//54 305//54 187//54 
f 305//54 306//54 188//54 
f 307//54 189//54 188//54 
f 304//54 190//54 189//54 
f 188//54 187//54 305//54 
f 189//54 307//54 304//54 
f 188//54 306//54 307//54 
f 102//54 308//54 191//54 
f 308//54 192//54 191//54 
f 308//54 309//54 192//54 
f 172//54 147//54 146//54 
f 310//54 136//54 134//54 
f 123//54 121//54 120//54 
f 100//54 311//54 105//54 
f 311//54 126//54 106//54 
f 106//54 105//54 311//54 
f 125//54 108//54 106//54 
f 106//54 126//54 125//54 
f 116//54 110//54 108//54 
f 108//54 125//54 116//54 
f 114//54 112//54 110//54 
f 118//54 116//54 125//54 
f 110//54 116//54 114//54 
f 105//54 103//54 100//54 
f 310//54 128//54 126//54 
f 126//54 311//54 310//54 
f 133//54 130//54 128//54 
f 128//54 310//54 133//54 
f 312//54 308//54 95//54 
f 102//54 96//54 95//54 
f 95//54 308//54 102//54 
f 84//54 82//54 90//54 
f 80//54 91//54 90//54 
f 90//54 82//54 80//54 
f 312//54 94//54 91//54 
f 91//54 80//54 312//54 
f 88//54 87//54 85//54 
f 76//54 75//54 73//54 
f 313//54 79//54 72//54 
f 81//54 73//54 72//54 
f 72//54 79//54 81//54 
f 61//54 314//54 65//54 
f 60//54 315//54 314//54 
f 59//54 58//54 315//54 
f 49//54 47//54 52//54 
f 55//54 54//54 41//54 
f 45//54 43//54 41//54 
f 316//54 315//54 39//54 
f 315//54 58//54 55//54 
f 47//54 45//54 54//54 
f 41//54 54//54 45//54 
f 34//54 316//54 38//54 
f 55//54 39//54 315//54 
f 41//54 39//54 55//54 
f 39//54 38//54 316//54 
f 38//54 36//54 34//54 
f 317//54 318//54 29//54 
f 35//54 30//54 29//54 
f 29//54 318//54 35//54 
f 16//54 15//54 19//54 
f 319//54 21//54 19//54 
f 19//54 15//54 319//54 
f 319//54 317//54 23//54 
f 23//54 21//54 319//54 
f 27//54 25//54 23//54 
f 23//54 317//54 27//54 
f 3//54 319//54 7//54 
f 319//54 15//54 8//54 
f 8//54 7//54 319//54 
f 12//54 10//54 8//54 
f 8//54 15//54 12//54 
f 319//54 3//54 2//54 
f 154//54 155//54 157//54 
f 320//54 157//54 158//54 
f 321//54 145//54 170//54 
f 145//54 142//54 168//54 
f 136//54 310//54 138//54 
f 310//54 167//54 140//54 
f 168//54 170//54 145//54 
f 140//54 167//54 168//54 
f 140//54 138//54 310//54 
f 168//54 142//54 140//54 
f 170//54 178//54 321//54 
f 175//54 321//54 178//54 
f 174//54 303//54 321//54 
f 173//54 172//54 303//54 
f 309//54 193//54 194//54 
f 191//54 195//54 99//54 
f 311//54 100//54 196//54 
f 99//54 195//54 196//54 
f 196//54 100//54 99//54 
f 322//54 311//54 197//54 
f 198//54 199//54 197//54 
f 197//54 311//54 198//54 
f 307//54 200//54 201//54 
f 304//54 307//54 202//54 
f 203//54 304//54 204//54 
f 205//54 323//54 206//54 
f 207//54 324//54 323//54 
f 208//54 314//54 209//54 
f 314//54 315//54 210//54 
f 210//54 209//54 314//54 
f 315//54 316//54 211//54 
f 211//54 210//54 315//54 
f 324//54 207//54 211//54 
f 211//54 316//54 324//54 
f 314//54 208//54 66//54 
f 212//54 68//54 66//54 
f 66//54 208//54 212//54 
f 212//54 213//54 69//54 
f 313//54 70//54 69//54 
f 69//54 213//54 313//54 
f 309//54 308//54 214//54 
f 215//54 216//54 214//54 
f 214//54 308//54 215//54 
f 217//54 218//54 219//54 
f 193//54 220//54 219//54 
f 219//54 218//54 193//54 
f 309//54 221//54 220//54 
f 220//54 193//54 309//54 
f 222//54 217//54 223//54 
f 224//54 164//54 163//54 
f 224//54 225//54 160//54 
f 320//54 161//54 160//54 
f 160//54 225//54 320//54 
f 325//54 226//54 227//54 
f 326//54 227//54 228//54 
f 229//54 230//54 165//54 
f 231//54 163//54 165//54 
f 165//54 230//54 231//54 
f 310//54 232//54 229//54 
f 229//54 167//54 310//54 
f 311//54 233//54 232//54 
f 232//54 310//54 311//54 
f 311//54 322//54 234//54 
f 234//54 233//54 311//54 
f 228//54 235//54 234//54 
f 234//54 322//54 228//54 
f 327//54 325//54 236//54 
f 326//54 237//54 236//54 
f 236//54 325//54 326//54 
f 328//54 327//54 238//54 
f 323//54 324//54 239//54 
f 328//54 240//54 239//54 
f 239//54 324//54 328//54 
f 305//54 241//54 242//54 
f 243//54 242//54 241//54 
f 241//54 244//54 243//54 
f 323//54 245//54 243//54 
f 206//54 323//54 244//54 
f 243//54 244//54 323//54 
f 242//54 246//54 305//54 
f 304//54 203//54 241//54 
f 241//54 305//54 304//54 
f 247//54 248//54 305//54 
f 248//54 249//54 306//54 
f 249//54 250//54 251//54 
f 307//54 252//54 253//54 
f 254//54 253//54 252//54 
f 252//54 255//54 254//54 
f 322//54 256//54 254//54 
f 326//54 322//54 255//54 
f 254//54 255//54 322//54 
f 253//54 200//54 307//54 
f 306//54 251//54 252//54 
f 252//54 307//54 306//54 
f 257//54 226//54 258//54 
f 258//54 259//54 257//54 
f 259//54 317//54 257//54 
f 325//54 260//54 258//54 
f 258//54 226//54 325//54 
f 317//54 150//54 261//54 
f 261//54 257//54 317//54 
f 262//54 261//54 150//54 
f 150//54 152//54 262//54 
f 225//54 263//54 262//54 
f 320//54 225//54 152//54 
f 262//54 152//54 225//54 
f 259//54 264//54 317//54 
f 319//54 149//54 150//54 
f 150//54 317//54 319//54 
f 318//54 317//54 264//54 
f 265//54 329//54 266//54 
f 267//54 268//54 329//54 
f 268//54 269//54 270//54 
f 271//54 272//54 273//54 
f 266//54 274//54 273//54 
f 273//54 272//54 266//54 
f 329//54 270//54 274//54 
f 274//54 266//54 329//54 
f 318//54 275//54 271//54 
f 271//54 276//54 318//54 
f 33//54 35//54 277//54 
f 318//54 276//54 277//54 
f 277//54 35//54 318//54 
f 316//54 34//54 278//54 
f 33//54 279//54 278//54 
f 278//54 34//54 33//54 
f 328//54 324//54 280//54 
f 316//54 281//54 280//54 
f 280//54 324//54 316//54 
f 282//54 283//54 327//54 
f 260//54 325//54 284//54 
f 327//54 283//54 284//54 
f 284//54 325//54 327//54 
f 312//54 80//54 285//54 
f 79//54 286//54 285//54 
f 285//54 80//54 79//54 
f 313//54 287//54 286//54 
f 286//54 79//54 313//54 
f 288//54 289//54 290//54 
f 291//54 213//54 290//54 
f 313//54 213//54 291//54 
f 290//54 289//54 291//54 
f 290//54 215//54 288//54 
f 308//54 292//54 288//54 
f 288//54 215//54 308//54 
f 308//54 312//54 293//54 
f 293//54 292//54 308//54 
f 294//54 295//54 293//54 
f 293//54 312//54 294//54 
f 291//54 287//54 313//54 
f 285//54 294//54 312//54 
f 284//54 296//54 260//54 
f 327//54 328//54 282//54 
f 280//54 282//54 328//54 
f 278//54 281//54 316//54 
f 277//54 279//54 33//54 
f 273//54 276//54 271//54 
f 270//54 329//54 268//54 
f 329//54 265//54 267//54 
f 266//54 297//54 265//54 
f 264//54 275//54 318//54 
f 152//54 154//54 320//54 
f 255//54 237//54 326//54 
f 251//54 306//54 249//54 
f 306//54 305//54 248//54 
f 305//54 246//54 247//54 
f 244//54 298//54 206//54 
f 239//54 245//54 323//54 
f 238//54 240//54 328//54 
f 236//54 238//54 327//54 
f 165//54 167//54 229//54 
f 228//54 322//54 326//54 
f 227//54 326//54 325//54 
f 160//54 164//54 224//54 
f 163//54 231//54 224//54 
f 223//54 299//54 222//54 
f 219//54 223//54 217//54 
f 214//54 221//54 309//54 
f 69//54 68//54 212//54 
f 66//54 65//54 314//54 
f 209//54 300//54 208//54 
f 323//54 205//54 207//54 
f 206//54 301//54 205//54 
f 204//54 302//54 203//54 
f 202//54 204//54 304//54 
f 201//54 202//54 307//54 
f 197//54 256//54 322//54 
f 196//54 198//54 311//54 
f 99//54 101//54 191//54 
f 194//54 192//54 309//54 
f 303//54 174//54 173//54 
f 321//54 175//54 174//54 
f 178//54 177//54 175//54 
f 138//54 137//54 136//54 
f 158//54 161//54 320//54 
f 157//54 320//54 154//54 
f 2//54 149//54 319//54 
f 7//54 5//54 3//54 
f 19//54 17//54 16//54 
f 29//54 27//54 317//54 
f 54//54 52//54 47//54 
f 52//54 50//54 49//54 
f 315//54 60//54 59//54 
f 314//54 61//54 60//54 
f 65//54 63//54 61//54 
f 72//54 70//54 313//54 
f 73//54 81//54 76//54 
f 85//54 84//54 88//54 
f 90//54 88//54 84//54 
f 95//54 94//54 312//54 
f 125//54 123//54 118//54 
f 120//54 118//54 123//54 
f 134//54 133//54 310//54 
f 146//54 303//54 172//54 
f 191//54 101//54 102//54 
f 187//54 190//54 304//54 
f 145//54 321//54 303//54 
o mesh75
f 330//55 218//55 217//55 
f 217//55 331//55 330//55 
f 217//55 222//55 331//55 
o mesh76
f 332//54 333//54 334//54 
f 333//54 335//54 331//54 
f 331//54 334//54 333//54 
f 335//54 336//54 330//54 
f 330//54 331//54 335//54 
f 336//54 337//54 338//54 
f 338//54 330//54 336//54 
f 339//54 340//54 338//54 
f 341//54 342//54 343//54 
f 342//54 344//54 345//54 
f 338//54 337//54 339//54 
f 346//54 347//54 336//54 
f 345//54 343//54 342//54 
f 348//54 349//54 345//54 
f 350//54 347//54 346//54 
f 336//54 335//54 346//54 
f 351//54 349//54 348//54 
f 345//54 344//54 348//54 
f 334//54 352//54 332//54 
f 342//54 341//54 335//54 
f 343//54 353//54 341//54 
f 335//54 333//54 342//54 
f 346//54 354//54 350//54 
f 348//54 355//54 351//54 
o mesh77
f 347//55 197//55 199//55 
f 199//55 336//55 347//55 
o mesh78
f 342//56 333//56 214//56 
f 214//56 216//56 342//56 
o mesh79
f 244//56 353//56 343//56 
f 343//56 298//56 244//56 
o mesh80
f 354//57 253//57 254//57 
f 254//57 350//57 354//57 
o mesh81
f 346//56 201//56 200//56 
f 200//56 354//56 346//56 
f 200//56 253//56 354//56 
o mesh82
f 335//57 204//57 202//57 
f 202//57 346//57 335//57 
f 335//57 302//57 204//57 
f 202//57 201//57 346//57 
o mesh83
f 335//58 341//58 203//58 
f 341//58 241//58 203//58 
f 203//58 302//58 335//58 
o mesh84
f 353//57 244//57 241//57 
f 241//57 341//57 353//57 
o mesh85
f 347//58 350//58 256//58 
f 350//58 254//58 256//58 
f 256//58 197//58 347//58 
o mesh86
f 344//59 342//59 215//59 
f 342//59 216//59 215//59 
f 215//59 290//59 344//59 
o mesh87
f 348//60 212//60 208//60 
f 344//60 213//60 212//60 
f 212//60 348//60 344//60 
f 344//60 290//60 213//60 
f 208//60 300//60 348//60 
o mesh88
f 348//59 300//59 209//59 
f 209//59 355//59 348//59 
o mesh89
f 355//60 209//60 210//60 
f 210//60 351//60 355//60 
o mesh90
f 351//61 210//61 211//61 
f 211//61 349//61 351//61 
o mesh91
f 349//62 207//62 205//62 
f 205//62 345//62 349//62 
f 349//62 211//62 207//62 
f 205//62 301//62 345//62 
o mesh92
f 343//61 345//61 206//61 
f 345//61 301//61 206//61 
f 206//61 298//61 343//61 
o mesh93
f 339//63 191//63 192//63 
f 192//63 340//63 339//63 
o mesh94
f 340//64 192//64 194//64 
f 194//64 338//64 340//64 
o mesh95
f 330//63 338//63 193//63 
f 338//63 194//63 193//63 
f 193//63 218//63 330//63 
o mesh96
f 336//65 199//65 198//65 
f 198//65 337//65 336//65 
f 198//65 196//65 337//65 
o mesh97
f 339//66 337//66 195//66 
f 337//66 196//66 195//66 
f 195//66 191//66 339//66 
o mesh98
f 352//65 219//65 220//65 
f 220//65 332//65 352//65 
o mesh99
f 332//66 220//66 221//66 
f 221//66 333//66 332//66 
f 221//66 214//66 333//66 
o mesh100
f 334//65 331//65 222//65 
f 222//65 299//65 334//65 
o mesh101
f 352//67 334//67 223//67 
f 334//67 299//67 223//67 
f 223//67 219//67 352//67 
o mesh102
f 356//68 227//68 226//68 
f 357//68 228//68 227//68 
f 227//68 356//68 357//68 
f 357//68 235//68 228//68 
f 226//68 257//68 356//68 
o mesh103
f 358//69 357//69 359//69 
f 357//69 356//69 360//69 
f 360//69 359//69 357//69 
f 361//69 362//69 360//69 
f 360//69 356//69 361//69 
f 363//69 364//69 357//69 
f 357//69 358//69 363//69 
f 359//69 365//69 358//69 
o mesh104
f 365//70 229//70 232//70 
f 232//70 358//70 365//70 
o mesh105
f 363//71 358//71 232//71 
f 232//71 233//71 363//71 
o mesh106
f 356//72 257//72 261//72 
f 261//72 361//72 356//72 
o mesh107
f 361//73 261//73 262//73 
f 262//73 362//73 361//73 
o mesh108
f 362//74 262//74 263//74 
f 263//74 360//74 362//74 
o mesh109
f 360//73 224//73 231//73 
f 231//73 359//73 360//73 
f 360//73 225//73 224//73 
f 360//73 263//73 225//73 
f 231//73 230//73 359//73 
o mesh110
f 359//75 230//75 229//75 
f 229//75 365//75 359//75 
o mesh111
f 364//75 234//75 235//75 
f 235//75 357//75 364//75 
o mesh112
f 363//76 233//76 234//76 
f 234//76 364//76 363//76 
o mesh113
f 366//76 190//76 187//76 
f 187//76 367//76 366//76 
o mesh114
f 367//75 187//75 188//75 
f 188//75 368//75 367//75 
o mesh115
f 368//77 188//77 189//77 
f 189//77 369//77 368//77 
o mesh116
f 369//78 189//78 190//78 
f 190//78 366//78 369//78 
o mesh117
f 369//79 366//79 367//79 
f 367//79 368//79 369//79 
o mesh118
f 370//78 255//78 252//78 
f 252//78 371//78 370//78 
o mesh119
f 372//79 373//79 374//79 
f 373//79 375//79 376//79 
f 376//79 374//79 373//79 
f 370//79 371//79 376//79 
f 376//79 375//79 370//79 
f 374//79 377//79 372//79 
o mesh120
f 375//80 236//80 237//80 
f 237//80 370//80 375//80 
f 237//80 255//80 370//80 
o mesh121
f 373//81 240//81 238//81 
f 238//81 375//81 373//81 
f 373//81 239//81 240//81 
f 238//81 236//81 375//81 
o mesh122
f 373//82 372//82 245//82 
f 372//82 243//82 245//82 
f 245//82 239//82 373//82 
o mesh123
f 377//83 242//83 243//83 
f 243//83 372//83 377//83 
o mesh124
f 377//84 374//84 246//84 
f 374//84 247//84 246//84 
f 246//84 242//84 377//84 
o mesh125
f 374//83 376//83 249//83 
f 249//83 248//83 374//83 
f 376//83 250//83 249//83 
f 248//83 247//83 374//83 
o mesh126
f 371//85 252//85 251//85 
f 251//85 376//85 371//85 
f 251//85 250//85 376//85 
o mesh127
f 378//84 259//84 258//84 
f 258//84 379//84 378//84 
o mesh128
f 380//86 381//86 382//86 
f 381//86 383//86 384//86 
f 384//86 382//86 381//86 
f 383//86 385//86 386//86 
f 386//86 384//86 383//86 
f 385//86 387//86 388//86 
f 388//86 386//86 385//86 
f 389//86 390//86 388//86 
f 388//86 387//86 389//86 
f 378//86 379//86 380//86 
f 380//86 391//86 378//86 
f 382//86 391//86 380//86 
o mesh129
f 380//87 379//87 260//87 
f 379//87 258//87 260//87 
f 260//87 296//87 380//87 
o mesh130
f 380//88 296//88 284//88 
f 284//88 381//88 380//88 
o mesh131
f 381//87 283//87 282//87 
f 282//87 383//87 381//87 
f 381//87 284//87 283//87 
f 282//87 280//87 383//87 
o mesh132
f 383//89 280//89 281//89 
f 281//89 385//89 383//89 
f 281//89 278//89 385//89 
o mesh133
f 387//90 385//90 279//90 
f 385//90 278//90 279//90 
f 279//90 277//90 387//90 
o mesh134
f 387//91 277//91 276//91 
f 276//91 389//91 387//91 
f 276//91 273//91 389//91 
o mesh135
f 389//92 273//92 274//92 
f 274//92 390//92 389//92 
o mesh136
f 390//93 274//93 270//93 
f 270//93 388//93 390//93 
f 270//93 269//93 388//93 
o mesh137
f 388//92 269//92 268//92 
f 268//92 386//92 388//92 
f 268//92 267//92 386//92 
o mesh138
f 384//94 386//94 265//94 
f 386//94 267//94 265//94 
f 265//94 297//94 384//94 
o mesh139
f 382//95 384//95 266//95 
f 384//95 297//95 266//95 
f 266//95 272//95 382//95 
o mesh140
f 382//96 272//96 271//96 
f 271//96 391//96 382//96 
o mesh141
f 378//95 391//95 275//95 
f 275//95 264//95 378//95 
f 391//95 271//95 275//95 
f 264//95 259//95 378//95 
o mesh142
f 392//97 292//97 293//97 
f 293//97 393//97 392//97 
o mesh143
f 394//98 395//98 396//98 
f 397//98 398//98 396//98 
f 396//98 395//98 397//98 
f 392//98 393//98 394//98 
f 394//98 399//98 392//98 
f 396//98 399//98 394//98 
o mesh144
f 393//99 293//99 295//99 
f 295//99 394//99 393//99 
o mesh145
f 394//100 295//100 294//100 
f 294//100 395//100 394//100 
f 294//100 285//100 395//100 
o mesh146
f 395//99 285//99 286//99 
f 286//99 397//99 395//99 
o mesh147
f 398//101 397//101 287//101 
f 397//101 286//101 287//101 
f 287//101 291//101 398//101 
o mesh148
f 398//102 291//102 289//102 
f 289//102 396//102 398//102 
o mesh149
f 396//101 289//101 288//101 
f 288//101 399//101 396//101 
o mesh150
f 399//102 288//102 292//102 
f 292//102 392//102 399//102 
