# OBJ generated by ONSHAPE BY PTC INC, 1.217 Units = meters
mtllib L2M2.mtl
g Part 1
v 0.11938 0.00762 0.0762 
v 0.18542 0.00762 0.0762 
v 0.16891 0.00762 0 
v 0.18542 0.00762 0 
v 0.11938 0.00762 0 
v 0.11938 0.0508 0.0762 
v 0.11938 0.0508 0 
v 0.08382 0.0508 0 
v 0.08382 0.0508 0.0762 
v 0.08382 0.00762 0 
v 0.08382 0.00762 0.0762 
v 0.00762 0.00762 0.0762 
v 0.08001 0.00762 0 
v 0.00762 0.00762 0 
v 0.00762 0.21082 0.0762 
v 0.00762 0.05461 0 
v 0.00762 0.21082 0 
v 0.08001 0.21082 0 
v 0.08382 0.21082 0.0762 
v 0.08382 0.21082 0 
v 0.08382 0.1016 0 
v 0.08382 0.1016 0.0762 
v 0.11938 0.1016 0 
v 0.11938 0.1016 0.0762 
v 0.11938 0.24638 0 
v 0.11938 0.24638 0.0762 
v 0.00762 0.24638 0.0762 
v 0.08001 0.24638 0 
v 0.00762 0.24638 0 
v 0.00762 0.51562 0.0762 
v 0.00762 0.38862 0 
v 0.00762 0.51308 0 
v 0.00762 0.30861 0 
v 0.00762 0.51562 0 
v 0.08001 0.51562 0 
v 0.127 0.51562 0.0762 
v 0.127 0.51562 0 
v 0.127 0.55118 0 
v 0.127 0.55118 0.0762 
v 0.00762 0.55118 0.0762 
v 0.08001 0.55118 0 
v 0.00762 0.55118 0 
v 0.00762 0.5842 0 
v 0.00762 0.74549 0 
v 0.00762 0.80518 0.0762 
v 0.00762 0.80518 0 
v 0.28702 0.80518 0.0762 
v 0.16891 0.80518 0 
v 0.254 0.80518 0 
v 0.08001 0.80518 0 
v 0.28702 0.80518 0 
v 0.28702 0.74549 0 
v 0.28702 0.71882 0.0762 
v 0.28702 0.71882 0 
v 0.4318 0.71882 0.0762 
v 0.33401 0.71882 0 
v 0.4318 0.71882 0 
v 0.4318 0.74549 0 
v 0.4318 0.75438 0.0762 
v 0.4318 0.75438 0 
v 0.33401 0.75438 0 
v 0.32258 0.75438 0.0762 
v 0.32258 0.75438 0 
v 0.32258 0.80518 0 
v 0.32258 0.80518 0.0762 
v 0.80518 0.80518 0.0762 
v 0.4572 0.80518 0 
v 0.68199 0.80518 0 
v 0.33401 0.80518 0 
v 0.80518 0.80518 0 
v 0.80518 0.62738 0.0762 
v 0.80518 0.74549 0 
v 0.80518 0.62738 0 
v 0.72898 0.62738 0.0762 
v 0.72898 0.62738 0 
v 0.72898 0.74549 0 
v 0.72898 0.762 0.0762 
v 0.72898 0.762 0 
v 0.69342 0.762 0 
v 0.69342 0.762 0.0762 
v 0.69342 0.59182 0.0762 
v 0.69342 0.74549 0 
v 0.69342 0.59182 0 
v 0.80518 0.59182 0 
v 0.80518 0.59182 0.0762 
v 0.80518 0.29718 0.0762 
v 0.80518 0.38862 0 
v 0.80518 0.30861 0 
v 0.80518 0.51308 0 
v 0.80518 0.5842 0 
v 0.80518 0.29718 0 
v 0.69342 0.29718 0.0762 
v 0.69342 0.29718 0 
v 0.69342 0.16002 0 
v 0.69342 0.16002 0.0762 
v 0.762 0.16002 0 
v 0.762 0.16002 0.0762 
v 0.762 0.19558 0 
v 0.762 0.19558 0.0762 
v 0.72898 0.19558 0 
v 0.72898 0.19558 0.0762 
v 0.72898 0.26162 0 
v 0.72898 0.26162 0.0762 
v 0.80518 0.26162 0 
v 0.80518 0.26162 0.0762 
v 0.80518 0.05461 0 
v 0.80518 0.00762 0.0762 
v 0.80518 0.00762 0 
v 0.75438 0.00762 0 
v 0.75438 0.00762 0.0762 
v 0.75438 0.05461 0 
v 0.75438 0.09398 0.0762 
v 0.75438 0.09398 0 
v 0.6858 0.09398 0 
v 0.6858 0.09398 0.0762 
v 0.6858 0.05842 0 
v 0.6858 0.05842 0.0762 
v 0.71882 0.05842 0 
v 0.71882 0.05842 0.0762 
v 0.71882 0.00762 0.0762 
v 0.71882 0.05461 0 
v 0.71882 0.00762 0 
v 0.635 0.00762 0.0762 
v 0.68199 0.00762 0 
v 0.635 0.00762 0 
v 0.635 0.04318 0 
v 0.635 0.04318 0.0762 
v 0.5842 0.04318 0 
v 0.5842 0.04318 0.0762 
v 0.5842 0.00762 0 
v 0.5842 0.00762 0.0762 
v 0.32258 0.00762 0.0762 
v 0.4572 0.00762 0 
v 0.33401 0.00762 0 
v 0.32258 0.00762 0 
v 0.18542 0.1016 0.0762 
v 0.18542 0.05461 0 
v 0.18542 0.1016 0 
v 0.22098 0.1016 0.0762 
v 0.22098 0.1016 0 
v 0.22098 0.04318 0.0762 
v 0.22098 0.05461 0 
v 0.22098 0.04318 0 
v 0.28702 0.04318 0.0762 
v 0.254 0.04318 0 
v 0.28702 0.04318 0 
v 0.28702 0.14478 0.0762 
v 0.28702 0.14478 0 
v 0.28702 0.05461 0 
v 0.52578 0.14478 0.0762 
v 0.4572 0.14478 0 
v 0.33401 0.14478 0 
v 0.52578 0.14478 0 
v 0.52578 0.0508 0.0762 
v 0.52578 0.05461 0 
v 0.52578 0.0508 0 
v 0.49022 0.0508 0.0762 
v 0.49022 0.0508 0 
v 0.32258 0.10922 0.0762 
v 0.32258 0.05461 0 
v 0.32258 0.10922 0 
v 0.33401 0.10922 0 
v 0.4572 0.10922 0 
v 0.49022 0.10922 0.0762 
v 0.49022 0.10922 0 
v 0.49022 0.05461 0 
v 0.8128 0.8128 0.0762 
v -1.66533e-16 0.8128 0.0762 
v 0.8128 0 0.0762 
v 0 0 0.0762 
v -1.66533e-16 0.8128 -0.00254 
v 0 0 -0.00254 
v 0.8128 0 -0.00254 
v 0.8128 0.8128 -0.00254 
v 0.381 0.46482 0 
v 0.381 0.4572 0 
v 0.4318 0.4572 0 
v 0.4318 0.46482 0 
v 0.08382 0.7366 0 
v 0.11938 0.7366 0 
v 0.08382 0.635 0 
v 0.11938 0.635 0 
v 0.72898 0.508 0 
v 0.69342 0.508 0 
v 0.68199 0.39878 0 
v 0.69342 0.39878 0 
v 0.72898 0.36322 0 
v 0.72898 0.38862 0 
v 0.52578 0.31242 0 
v 0.68199 0.36322 0 
v 0.52578 0.36322 0 
v 0.4572 0.34798 0 
v 0.49022 0.34798 0 
v 0.49022 0.38862 0 
v 0.4572 0.51562 0 
v 0.49022 0.51308 0 
v 0.33401 0.61722 0 
v 0.43942 0.5842 0 
v 0.254 0.61722 0 
v 0.254 0.65278 0 
v 0.22098 0.7366 0 
v 0.18542 0.7366 0 
v 0.18542 0.61722 0 
v 0.33401 0.65278 0 
v 0.4572 0.65278 0 
v 0.62738 0.55118 0 
v 0.47498 0.5842 0 
v 0.47498 0.55118 0 
v 0.52578 0.51308 0 
v 0.52578 0.39878 0 
v 0.59182 0.4572 0 
v 0.62738 0.4572 0 
v 0.62738 0.51308 0 
v 0.52578 0.51562 0 
v 0.59182 0.51308 0 
v 0.33401 0.21082 0 
v 0.254 0.21082 0 
v 0.18542 0.24638 0 
v 0.18542 0.1524 0 
v 0.22098 0.1524 0 
v 0.22098 0.21082 0 
v 0.254 0.24638 0 
v 0.33401 0.24638 0 
v 0.4572 0.24638 0 
v 0.59182 0.1016 0 
v 0.59182 0.21082 0 
v 0.4572 0.21082 0 
v 0.62738 0.1016 0 
v 0.62738 0.3048 0 
v 0.59182 0.3048 0 
v 0.59182 0.24638 0 
v 0.28702 0.31242 0 
v 0.33401 0.31242 0 
v 0.28702 0.38862 0 
v 0.28702 0.55118 0 
v 0.28702 0.51308 0 
v 0.4318 0.51562 0 
v 0.381 0.51562 0 
v 0.381 0.55118 0 
v 0.4318 0.55118 0 
v 0.33401 0.55118 0 
v 0.33401 0.51562 0 
v 0.32258 0.51562 0 
v 0.32258 0.51308 0 
v 0.32258 0.38862 0 
v 0.32258 0.34798 0 
v 0.33401 0.34798 0 
v 0.381 0.34798 0 
v 0.4318 0.34798 0 
v 0.4318 0.31242 0 
v 0.381 0.31242 0 
v 0.4572 0.31242 0 
v 0.08001 0.33782 0 
v 0.0762 0.37338 0 
v 0.0762 0.33782 0 
v 0.08001 0.37338 0 
v 0.16891 0.37338 0 
v 0.18542 0.37338 0 
v 0.18542 0.38862 0 
v 0.22098 0.55118 0 
v 0.1778 0.55118 0 
v 0.1778 0.51562 0 
v 0.18542 0.51308 0 
v 0.18542 0.51562 0 
v 0.22098 0.51308 0 
v 0.22098 0.38862 0 
v 0.22098 0.33782 0 
v 0.1524 0.43942 0 
v 0.1524 0.47498 0 
v 0.08001 0.47498 0 
v 0.0762 0.43942 0 
v 0.08001 0.43942 0 
v 0.0762 0.47498 0 
v 0.57658 0.75438 0 
v 0.4826 0.75438 0 
v 0.4826 0.74549 0 
v 0.54102 0.61722 0 
v 0.54102 0.71882 0 
v 0.47498 0.65278 0 
v 0.4826 0.71882 0 
v 0.635 0.61722 0 
v 0.635 0.65278 0 
v 0.57658 0.74549 0 
v 0.57658 0.65278 0 
v 0.16891 0.33782 0 
v 0.43942 0.55118 0 
v 0.59182 0.51562 0 
v 0.22098 0.65278 0 
v 0.43942 0.61722 0 
v 0.49022 0.51562 0 
v 0.33401 0.05461 0 
v 0.4572 0.51308 0 
v 0.33401 0.51308 0 
v 0.33401 0.38862 0 
v 0.4572 0.38862 0 
v 0.68199 0.5842 0 
v 0.68199 0.51308 0 
v 0.08001 0.5842 0 
v 0.08001 0.74549 0 
v 0.16891 0.5842 0 
v 0.16891 0.74549 0 
v 0.254 0.74549 0 
v 0.68199 0.05461 0 
v 0.68199 0.30861 0 
v 0.68199 0.74549 0 
v 0.4572 0.74549 0 
v 0.08001 0.51308 0 
v 0.16891 0.51308 0 
v 0.08001 0.05461 0 
v 0.16891 0.05461 0 
v 0.16891 0.30861 0 
v 0.08001 0.30861 0 
v 0.254 0.05461 0 
v 0.4572 0.05461 0 
v 0.4572 0.30861 0 
v 0.33401 0.5842 0 
v 0.254 0.5842 0 
v 0.254 0.30861 0 
v 0.33401 0.30861 0 
v 0.254 0.38862 0 
v 0.254 0.51308 0 
v 0.08001 0.38862 0 
v 0.16891 0.38862 0 
v 0.52578 0.39878 0.0762 
v 0.52578 0.51562 0.0762 
v 0.62738 0.4572 0.0762 
v 0.62738 0.55118 0.0762 
v 0.59182 0.51562 0.0762 
v 0.49022 0.51562 0.0762 
v 0.52578 0.36322 0.0762 
v 0.72898 0.36322 0.0762 
v 0.69342 0.39878 0.0762 
v 0.72898 0.508 0.0762 
v 0.69342 0.508 0.0762 
v 0.4318 0.51562 0.0762 
v 0.47498 0.55118 0.0762 
v 0.43942 0.55118 0.0762 
v 0.47498 0.65278 0.0762 
v 0.43942 0.61722 0.0762 
v 0.49022 0.34798 0.0762 
v 0.52578 0.31242 0.0762 
v 0.22098 0.65278 0.0762 
v 0.18542 0.61722 0.0762 
v 0.4318 0.31242 0.0762 
v 0.18542 0.7366 0.0762 
v 0.59182 0.4572 0.0762 
v 0.4318 0.55118 0.0762 
v 0.4318 0.34798 0.0762 
v 0.22098 0.7366 0.0762 
v 0.18542 0.24638 0.0762 
v 0.59182 0.24638 0.0762 
v 0.62738 0.1016 0.0762 
v 0.59182 0.21082 0.0762 
v 0.22098 0.21082 0.0762 
v 0.18542 0.1524 0.0762 
v 0.22098 0.1524 0.0762 
v 0.62738 0.3048 0.0762 
v 0.59182 0.3048 0.0762 
v 0.59182 0.1016 0.0762 
v 0.4318 0.46482 0.0508 
v 0.381 0.46482 0.0508 
v 0.381 0.4572 0.0508 
v 0.4318 0.4572 0.0508 
v 0.381 0.31242 0.0762 
v 0.381 0.34798 0.0762 
v 0.381 0.55118 0.0762 
v 0.28702 0.55118 0.0762 
v 0.32258 0.51562 0.0762 
v 0.28702 0.31242 0.0762 
v 0.32258 0.34798 0.0762 
v 0.381 0.51562 0.0762 
v 0.0762 0.37338 0.0762 
v 0.0762 0.33782 0.0762 
v 0.22098 0.33782 0.0762 
v 0.18542 0.37338 0.0762 
v 0.22098 0.55118 0.0762 
v 0.18542 0.51562 0.0762 
v 0.1778 0.55118 0.0762 
v 0.1778 0.51562 0.0762 
v 0.1524 0.43942 0.0762 
v 0.1524 0.47498 0.0762 
v 0.0762 0.47498 0.0762 
v 0.0762 0.43942 0.0762 
v 0.635 0.61722 0.0762 
v 0.635 0.65278 0.0762 
v 0.57658 0.65278 0.0762 
v 0.57658 0.75438 0.0762 
v 0.54102 0.71882 0.0762 
v 0.4826 0.75438 0.0762 
v 0.4826 0.71882 0.0762 
v 0.54102 0.61722 0.0762 
v 0.08382 0.635 0.0762 
v 0.11938 0.635 0.0762 
v 0.11938 0.7366 0.0762 
v 0.08382 0.7366 0.0762 
vn 0 1 0 
vn 1 1.22465e-16 0 
vn -1 -1.22465e-16 0 
vn 0 1 0 
vn 1 0 0 
vn 0 -1 0 
vn -1 -1.22465e-16 0 
vn 1 1.22465e-16 0 
vn 0 1 0 
vn 0 -1 0 
vn 1 0 0 
vn 0 1 0 
vn 0 -1 0 
vn -1 -1.22465e-16 0 
vn 1 0 0 
vn 0 1 0 
vn 0 -1 0 
vn -1 -2.73185e-16 0 
vn 0 1 0 
vn 1 1.22465e-16 0 
vn -1 -1.22465e-16 0 
vn 0 -1 0 
vn 0 1 0 
vn -1 -1.22465e-16 0 
vn 0 -1 0 
vn 1 0 0 
vn 0 1 0 
vn 0 -1 0 
vn -1 -2.73185e-16 0 
vn 0 1 0 
vn 1 1.22465e-16 0 
vn -1 0 0 
vn 0 -1 0 
vn 0 1 0 
vn 1 0 0 
vn -1 0 0 
vn 0 1 0 
vn 1 1.22465e-16 0 
vn -1 -1.22465e-16 0 
vn 0 1 0 
vn 1 1.22465e-16 0 
vn 0 -1 0 
vn -1 -1.22465e-16 0 
vn 0 0 1 
vn 0 -1 0 
vn 1 2.73185e-16 0 
vn 0 1 0 
vn 0 0 -1 
vn 0 0 1 
vn 1 1.22465e-16 0 
vn 0 1 0 
vn -1 0 0 
vn 0 -1 0 
vn 1 1.22465e-16 0 
vn 0 1 0 
vn -1 -1.22465e-16 0 
vn 0 -1 0 
vn 0 1 0 
vn -1 -1.22465e-16 0 
vn 0 -1 0 
vn 1 1.22465e-16 0 
vn -1 -1.22465e-16 0 
vn 0 1 0 
vn 0 0 1 
vn 0 -1 0 
vn 1 1.22465e-16 0 
vn -1 -1.22465e-16 0 
vn 0 -1 0 
vn 1 1.22465e-16 0 
vn -1 -1.22465e-16 0 
vn 0 1 0 
vn 0 -1 0 
vn 1 0 0 
vn 0 0 1 
vn 0 -1 0 
vn -1 -1.22465e-16 0 
vn 0 1 0 
vn 1 0 0 
vn 0 -1 0 
vn 0 1 0 
vn -1 0 0 
vn 0 0 1 
vn 0 -1 0 
vn 1 1.22465e-16 0 
vn 0 1 0 
vn -1 0 0 
vn 0 -1 0 
vn 0 1 0 
vn 1 0 0 
vn -1 0 0 
vn 0 -1 0 
vn 0 0 1 
vn 1 0 0 
vn 0 1 0 
vn -1 0 0 
vn 0 -1 0 
vn 1 1.22465e-16 0 
vn 0 1 0 
vn -1 -1.22465e-16 0 
vn 0 0 1 
usemtl 0.768627_0.886275_0.952941_0.000000_0.000000
o mesh0
f 1//1 2//1 3//1 
f 2//1 4//1 3//1 
f 3//1 5//1 1//1 
o mesh1
f 6//2 1//2 5//2 
f 5//2 7//2 6//2 
o mesh2
f 6//1 7//1 8//1 
f 8//1 9//1 6//1 
o mesh3
f 10//3 11//3 9//3 
f 9//3 8//3 10//3 
o mesh4
f 12//4 11//4 13//4 
f 11//4 10//4 13//4 
f 13//4 14//4 12//4 
o mesh5
f 15//5 12//5 16//5 
f 12//5 14//5 16//5 
f 16//5 17//5 15//5 
o mesh6
f 15//6 17//6 18//6 
f 18//6 19//6 15//6 
f 18//6 20//6 19//6 
o mesh7
f 19//7 20//7 21//7 
f 21//7 22//7 19//7 
o mesh8
f 22//6 21//6 23//6 
f 23//6 24//6 22//6 
o mesh9
f 24//8 23//8 25//8 
f 25//8 26//8 24//8 
o mesh10
f 27//9 26//9 28//9 
f 26//9 25//9 28//9 
f 28//9 29//9 27//9 
o mesh11
f 30//8 31//8 32//8 
f 27//8 33//8 31//8 
f 31//8 30//8 27//8 
f 27//8 29//8 33//8 
f 32//8 34//8 30//8 
o mesh12
f 30//10 34//10 35//10 
f 35//10 36//10 30//10 
f 35//10 37//10 36//10 
o mesh13
f 36//11 37//11 38//11 
f 38//11 39//11 36//11 
o mesh14
f 40//12 39//12 41//12 
f 39//12 38//12 41//12 
f 41//12 42//12 40//12 
o mesh15
f 40//11 43//11 44//11 
f 44//11 45//11 40//11 
f 40//11 42//11 43//11 
f 44//11 46//11 45//11 
o mesh16
f 47//13 48//13 49//13 
f 45//13 50//13 48//13 
f 48//13 47//13 45//13 
f 45//13 46//13 50//13 
f 49//13 51//13 47//13 
o mesh17
f 47//14 51//14 52//14 
f 52//14 53//14 47//14 
f 52//14 54//14 53//14 
o mesh18
f 55//13 53//13 56//13 
f 53//13 54//13 56//13 
f 56//13 57//13 55//13 
o mesh19
f 55//15 57//15 58//15 
f 58//15 59//15 55//15 
f 58//15 60//15 59//15 
o mesh20
f 59//16 60//16 61//16 
f 61//16 62//16 59//16 
f 61//16 63//16 62//16 
o mesh21
f 63//15 64//15 65//15 
f 65//15 62//15 63//15 
o mesh22
f 66//17 65//17 67//17 
f 67//17 68//17 66//17 
f 65//17 69//17 67//17 
f 65//17 64//17 69//17 
f 68//17 70//17 66//17 
o mesh23
f 71//18 66//18 72//18 
f 66//18 70//18 72//18 
f 72//18 73//18 71//18 
o mesh24
f 74//19 71//19 73//19 
f 73//19 75//19 74//19 
o mesh25
f 74//20 75//20 76//20 
f 76//20 77//20 74//20 
f 76//20 78//20 77//20 
o mesh26
f 77//19 78//19 79//19 
f 79//19 80//19 77//19 
o mesh27
f 81//21 80//21 82//21 
f 80//21 79//21 82//21 
f 82//21 83//21 81//21 
o mesh28
f 83//22 84//22 85//22 
f 85//22 81//22 83//22 
o mesh29
f 86//21 87//21 88//21 
f 85//21 89//21 87//21 
f 87//21 86//21 85//21 
f 85//21 90//21 89//21 
f 85//21 84//21 90//21 
f 88//21 91//21 86//21 
o mesh30
f 92//23 86//23 91//23 
f 91//23 93//23 92//23 
o mesh31
f 92//24 93//24 94//24 
f 94//24 95//24 92//24 
o mesh32
f 95//25 94//25 96//25 
f 96//25 97//25 95//25 
o mesh33
f 97//26 96//26 98//26 
f 98//26 99//26 97//26 
o mesh34
f 99//27 98//27 100//27 
f 100//27 101//27 99//27 
o mesh35
f 101//26 100//26 102//26 
f 102//26 103//26 101//26 
o mesh36
f 102//28 104//28 105//28 
f 105//28 103//28 102//28 
o mesh37
f 105//29 104//29 106//29 
f 106//29 107//29 105//29 
f 106//29 108//29 107//29 
o mesh38
f 107//30 108//30 109//30 
f 109//30 110//30 107//30 
o mesh39
f 110//31 109//31 111//31 
f 111//31 112//31 110//31 
f 111//31 113//31 112//31 
o mesh40
f 112//30 113//30 114//30 
f 114//30 115//30 112//30 
o mesh41
f 115//32 114//32 116//32 
f 116//32 117//32 115//32 
o mesh42
f 117//33 116//33 118//33 
f 118//33 119//33 117//33 
o mesh43
f 120//32 119//32 121//32 
f 119//32 118//32 121//32 
f 121//32 122//32 120//32 
o mesh44
f 123//34 120//34 124//34 
f 120//34 122//34 124//34 
f 124//34 125//34 123//34 
o mesh45
f 123//35 125//35 126//35 
f 126//35 127//35 123//35 
o mesh46
f 127//34 126//34 128//34 
f 128//34 129//34 127//34 
o mesh47
f 129//36 128//36 130//36 
f 130//36 131//36 129//36 
o mesh48
f 132//37 131//37 133//37 
f 133//37 134//37 132//37 
f 131//37 130//37 133//37 
f 134//37 135//37 132//37 
o mesh49
f 2//36 136//36 137//36 
f 136//36 138//36 137//36 
f 137//36 4//36 2//36 
o mesh50
f 139//37 140//37 138//37 
f 138//37 136//37 139//37 
o mesh51
f 139//38 141//38 142//38 
f 141//38 143//38 142//38 
f 142//38 140//38 139//38 
o mesh52
f 141//37 144//37 145//37 
f 144//37 146//37 145//37 
f 145//37 143//37 141//37 
o mesh53
f 147//39 148//39 149//39 
f 149//39 144//39 147//39 
f 149//39 146//39 144//39 
o mesh54
f 147//40 150//40 151//40 
f 151//40 152//40 147//40 
f 150//40 153//40 151//40 
f 152//40 148//40 147//40 
o mesh55
f 150//41 154//41 155//41 
f 154//41 156//41 155//41 
f 155//41 153//41 150//41 
o mesh56
f 157//42 158//42 156//42 
f 156//42 154//42 157//42 
o mesh57
f 159//41 132//41 160//41 
f 132//41 135//41 160//41 
f 160//41 161//41 159//41 
o mesh58
f 159//42 162//42 163//42 
f 163//42 164//42 159//42 
f 159//42 161//42 162//42 
f 163//42 165//42 164//42 
o mesh59
f 164//43 165//43 166//43 
f 166//43 157//43 164//43 
f 166//43 158//43 157//43 
o mesh60
f 167//44 66//44 71//44 
f 167//44 47//44 65//44 
f 65//44 66//44 167//44 
f 47//44 53//44 62//44 
f 62//44 65//44 47//44 
f 55//44 59//44 62//44 
f 62//44 53//44 55//44 
f 168//44 45//44 47//44 
f 47//44 167//44 168//44 
f 168//44 30//44 40//44 
f 40//44 45//44 168//44 
f 39//44 40//44 30//44 
f 30//44 36//44 39//44 
f 168//44 15//44 27//44 
f 27//44 30//44 168//44 
f 27//44 15//44 19//44 
f 24//44 26//44 19//44 
f 19//44 26//44 27//44 
f 71//44 169//44 167//44 
f 170//44 12//44 15//44 
f 170//44 1//44 11//44 
f 15//44 168//44 170//44 
f 1//44 6//44 11//44 
f 11//44 12//44 170//44 
f 170//44 132//44 2//44 
f 2//44 132//44 144//44 
f 6//44 9//44 11//44 
f 144//44 141//44 2//44 
f 136//44 2//44 141//44 
f 2//44 1//44 170//44 
f 170//44 123//44 131//44 
f 154//44 150//44 164//44 
f 147//44 159//44 164//44 
f 19//44 22//44 24//44 
f 144//44 132//44 159//44 
f 170//44 120//44 123//44 
f 164//44 150//44 147//44 
f 159//44 147//44 144//44 
f 170//44 110//44 120//44 
f 141//44 139//44 136//44 
f 170//44 107//44 110//44 
f 131//44 132//44 170//44 
f 123//44 129//44 131//44 
f 115//44 117//44 119//44 
f 164//44 157//44 154//44 
f 119//44 112//44 115//44 
f 110//44 119//44 120//44 
f 169//44 71//44 85//44 
f 92//44 95//44 101//44 
f 123//44 127//44 129//44 
f 169//44 105//44 107//44 
f 85//44 86//44 169//44 
f 101//44 103//44 92//44 
f 97//44 99//44 101//44 
f 107//44 170//44 169//44 
f 86//44 103//44 105//44 
f 101//44 95//44 97//44 
f 86//44 105//44 169//44 
f 119//44 110//44 112//44 
f 85//44 71//44 74//44 
f 80//44 81//44 74//44 
f 74//44 81//44 85//44 
f 103//44 86//44 92//44 
f 74//44 77//44 80//44 
o mesh61
f 171//43 172//43 170//43 
f 170//43 168//43 171//43 
o mesh62
f 172//45 173//45 169//45 
f 169//45 170//45 172//45 
o mesh63
f 173//46 174//46 167//46 
f 167//46 169//46 173//46 
o mesh64
f 174//47 171//47 168//47 
f 168//47 167//47 174//47 
o mesh65
f 174//48 173//48 172//48 
f 172//48 171//48 174//48 
o mesh66
f 16//49 14//49 13//49 
f 291//49 134//49 133//49 
f 292//49 293//49 175//49 
f 293//49 294//49 176//49 
f 295//49 177//49 176//49 
f 292//49 178//49 177//49 
f 176//49 175//49 293//49 
f 177//49 295//49 292//49 
f 176//49 294//49 295//49 
f 296//49 297//49 89//49 
f 44//49 43//49 298//49 
f 299//49 179//49 180//49 
f 299//49 298//49 181//49 
f 181//49 179//49 299//49 
f 298//49 300//49 182//49 
f 182//49 181//49 298//49 
f 301//49 180//49 182//49 
f 182//49 300//49 301//49 
f 46//49 44//49 299//49 
f 50//49 299//49 301//49 
f 48//49 301//49 302//49 
f 160//49 135//49 134//49 
f 303//49 124//49 122//49 
f 111//49 109//49 108//49 
f 88//49 304//49 93//49 
f 304//49 114//49 94//49 
f 94//49 93//49 304//49 
f 113//49 96//49 94//49 
f 94//49 114//49 113//49 
f 104//49 98//49 96//49 
f 96//49 113//49 104//49 
f 102//49 100//49 98//49 
f 106//49 104//49 113//49 
f 98//49 104//49 102//49 
f 93//49 91//49 88//49 
f 303//49 116//49 114//49 
f 114//49 304//49 303//49 
f 121//49 118//49 116//49 
f 116//49 303//49 121//49 
f 305//49 296//49 83//49 
f 90//49 84//49 83//49 
f 83//49 296//49 90//49 
f 72//49 70//49 78//49 
f 68//49 79//49 78//49 
f 78//49 70//49 68//49 
f 305//49 82//49 79//49 
f 79//49 68//49 305//49 
f 76//49 75//49 73//49 
f 64//49 63//49 61//49 
f 306//49 67//49 60//49 
f 69//49 61//49 60//49 
f 60//49 67//49 69//49 
f 49//49 302//49 52//49 
f 43//49 42//49 41//49 
f 307//49 308//49 37//49 
f 308//49 300//49 38//49 
f 38//49 37//49 308//49 
f 298//49 41//49 38//49 
f 38//49 300//49 298//49 
f 34//49 32//49 307//49 
f 33//49 29//49 28//49 
f 18//49 309//49 21//49 
f 309//49 310//49 23//49 
f 23//49 21//49 309//49 
f 310//49 311//49 25//49 
f 25//49 23//49 310//49 
f 312//49 28//49 25//49 
f 25//49 311//49 312//49 
f 17//49 16//49 309//49 
f 3//49 310//49 7//49 
f 309//49 8//49 7//49 
f 7//49 310//49 309//49 
f 13//49 10//49 8//49 
f 8//49 309//49 13//49 
f 310//49 3//49 4//49 
f 142//49 143//49 145//49 
f 313//49 145//49 146//49 
f 314//49 133//49 158//49 
f 133//49 130//49 156//49 
f 124//49 303//49 126//49 
f 303//49 155//49 128//49 
f 156//49 158//49 133//49 
f 128//49 155//49 156//49 
f 128//49 126//49 303//49 
f 156//49 130//49 128//49 
f 158//49 166//49 314//49 
f 163//49 314//49 166//49 
f 162//49 291//49 314//49 
f 161//49 160//49 291//49 
f 87//49 89//49 183//49 
f 297//49 184//49 183//49 
f 183//49 89//49 297//49 
f 185//49 186//49 184//49 
f 184//49 297//49 185//49 
f 304//49 88//49 187//49 
f 87//49 188//49 187//49 
f 187//49 88//49 87//49 
f 315//49 304//49 189//49 
f 190//49 191//49 189//49 
f 189//49 304//49 190//49 
f 295//49 192//49 193//49 
f 292//49 295//49 194//49 
f 195//49 292//49 196//49 
f 197//49 316//49 198//49 
f 199//49 317//49 316//49 
f 200//49 302//49 201//49 
f 301//49 202//49 201//49 
f 201//49 302//49 301//49 
f 301//49 300//49 203//49 
f 203//49 202//49 301//49 
f 317//49 199//49 203//49 
f 203//49 300//49 317//49 
f 302//49 200//49 54//49 
f 204//49 56//49 54//49 
f 54//49 200//49 204//49 
f 204//49 205//49 57//49 
f 306//49 58//49 57//49 
f 57//49 205//49 306//49 
f 297//49 296//49 206//49 
f 207//49 208//49 206//49 
f 206//49 296//49 207//49 
f 209//49 210//49 211//49 
f 185//49 212//49 211//49 
f 211//49 210//49 185//49 
f 297//49 213//49 212//49 
f 212//49 185//49 297//49 
f 214//49 209//49 215//49 
f 216//49 152//49 151//49 
f 216//49 217//49 148//49 
f 313//49 149//49 148//49 
f 148//49 217//49 313//49 
f 318//49 311//49 218//49 
f 311//49 138//49 219//49 
f 219//49 218//49 311//49 
f 220//49 219//49 138//49 
f 138//49 140//49 220//49 
f 217//49 221//49 220//49 
f 313//49 217//49 140//49 
f 220//49 140//49 217//49 
f 218//49 222//49 318//49 
f 310//49 137//49 138//49 
f 138//49 311//49 310//49 
f 318//49 222//49 223//49 
f 319//49 223//49 224//49 
f 225//49 226//49 153//49 
f 227//49 151//49 153//49 
f 153//49 226//49 227//49 
f 303//49 228//49 225//49 
f 225//49 155//49 303//49 
f 304//49 229//49 228//49 
f 228//49 303//49 304//49 
f 304//49 315//49 230//49 
f 230//49 229//49 304//49 
f 224//49 231//49 230//49 
f 230//49 315//49 224//49 
f 320//49 318//49 232//49 
f 319//49 233//49 232//49 
f 232//49 318//49 319//49 
f 321//49 320//49 234//49 
f 316//49 317//49 235//49 
f 321//49 236//49 235//49 
f 235//49 317//49 321//49 
f 293//49 237//49 238//49 
f 239//49 238//49 237//49 
f 237//49 240//49 239//49 
f 316//49 241//49 239//49 
f 198//49 316//49 240//49 
f 239//49 240//49 316//49 
f 238//49 242//49 293//49 
f 292//49 195//49 237//49 
f 237//49 293//49 292//49 
f 243//49 244//49 293//49 
f 244//49 245//49 294//49 
f 245//49 246//49 247//49 
f 295//49 248//49 249//49 
f 250//49 249//49 248//49 
f 248//49 251//49 250//49 
f 315//49 252//49 250//49 
f 319//49 315//49 251//49 
f 250//49 251//49 315//49 
f 249//49 192//49 295//49 
f 294//49 247//49 248//49 
f 248//49 295//49 294//49 
f 253//49 312//49 311//49 
f 322//49 31//49 254//49 
f 31//49 33//49 255//49 
f 255//49 254//49 31//49 
f 312//49 253//49 255//49 
f 255//49 33//49 312//49 
f 322//49 256//49 257//49 
f 323//49 257//49 258//49 
f 308//49 323//49 259//49 
f 321//49 317//49 260//49 
f 300//49 261//49 260//49 
f 260//49 317//49 300//49 
f 308//49 262//49 261//49 
f 261//49 300//49 308//49 
f 263//49 264//49 262//49 
f 262//49 308//49 263//49 
f 265//49 266//49 320//49 
f 311//49 318//49 267//49 
f 320//49 266//49 267//49 
f 267//49 318//49 320//49 
f 322//49 323//49 268//49 
f 308//49 269//49 268//49 
f 268//49 323//49 308//49 
f 307//49 270//49 269//49 
f 269//49 308//49 307//49 
f 32//49 31//49 271//49 
f 322//49 272//49 271//49 
f 307//49 32//49 273//49 
f 271//49 31//49 322//49 
f 271//49 273//49 32//49 
f 305//49 68//49 274//49 
f 67//49 275//49 274//49 
f 274//49 68//49 67//49 
f 306//49 276//49 275//49 
f 275//49 67//49 306//49 
f 277//49 278//49 279//49 
f 280//49 205//49 279//49 
f 306//49 205//49 280//49 
f 279//49 278//49 280//49 
f 279//49 207//49 277//49 
f 296//49 281//49 277//49 
f 277//49 207//49 296//49 
f 296//49 305//49 282//49 
f 282//49 281//49 296//49 
f 283//49 284//49 282//49 
f 282//49 305//49 283//49 
f 280//49 276//49 306//49 
f 274//49 283//49 305//49 
f 273//49 270//49 307//49 
f 268//49 272//49 322//49 
f 267//49 285//49 311//49 
f 320//49 321//49 265//49 
f 260//49 265//49 321//49 
f 259//49 263//49 308//49 
f 258//49 259//49 323//49 
f 257//49 323//49 322//49 
f 254//49 256//49 322//49 
f 311//49 285//49 253//49 
f 251//49 233//49 319//49 
f 247//49 294//49 245//49 
f 294//49 293//49 244//49 
f 293//49 242//49 243//49 
f 240//49 286//49 198//49 
f 235//49 241//49 316//49 
f 234//49 236//49 321//49 
f 232//49 234//49 320//49 
f 153//49 155//49 225//49 
f 224//49 315//49 319//49 
f 223//49 319//49 318//49 
f 140//49 142//49 313//49 
f 148//49 152//49 216//49 
f 151//49 227//49 216//49 
f 215//49 287//49 214//49 
f 211//49 215//49 209//49 
f 206//49 213//49 297//49 
f 57//49 56//49 204//49 
f 54//49 52//49 302//49 
f 201//49 288//49 200//49 
f 316//49 197//49 199//49 
f 198//49 289//49 197//49 
f 196//49 290//49 195//49 
f 194//49 196//49 292//49 
f 193//49 194//49 295//49 
f 189//49 252//49 315//49 
f 187//49 190//49 304//49 
f 183//49 188//49 87//49 
f 291//49 162//49 161//49 
f 314//49 163//49 162//49 
f 166//49 165//49 163//49 
f 126//49 125//49 124//49 
f 146//49 149//49 313//49 
f 145//49 313//49 142//49 
f 4//49 137//49 310//49 
f 7//49 5//49 3//49 
f 309//49 18//49 17//49 
f 21//49 20//49 18//49 
f 28//49 312//49 33//49 
f 307//49 35//49 34//49 
f 37//49 35//49 307//49 
f 41//49 298//49 43//49 
f 52//49 51//49 49//49 
f 60//49 58//49 306//49 
f 61//49 69//49 64//49 
f 73//49 72//49 76//49 
f 78//49 76//49 72//49 
f 83//49 82//49 305//49 
f 113//49 111//49 106//49 
f 108//49 106//49 111//49 
f 122//49 121//49 303//49 
f 134//49 291//49 160//49 
f 302//49 49//49 48//49 
f 301//49 48//49 50//49 
f 299//49 50//49 46//49 
f 180//49 301//49 299//49 
f 298//49 299//49 44//49 
f 89//49 90//49 296//49 
f 175//49 178//49 292//49 
f 133//49 314//49 291//49 
f 13//49 309//49 16//49 
o mesh67
f 324//50 210//50 209//50 
f 209//50 325//50 324//50 
f 209//50 214//50 325//50 
o mesh68
f 326//49 327//49 328//49 
f 327//49 329//49 325//49 
f 325//49 328//49 327//49 
f 329//49 330//49 324//49 
f 324//49 325//49 329//49 
f 330//49 331//49 332//49 
f 332//49 324//49 330//49 
f 333//49 334//49 332//49 
f 335//49 336//49 337//49 
f 336//49 338//49 339//49 
f 332//49 331//49 333//49 
f 340//49 341//49 330//49 
f 339//49 337//49 336//49 
f 342//49 343//49 339//49 
f 344//49 341//49 340//49 
f 330//49 329//49 340//49 
f 345//49 343//49 342//49 
f 339//49 338//49 342//49 
f 328//49 346//49 326//49 
f 336//49 335//49 329//49 
f 337//49 347//49 335//49 
f 329//49 327//49 336//49 
f 340//49 348//49 344//49 
f 342//49 349//49 345//49 
o mesh69
f 341//50 189//50 191//50 
f 191//50 330//50 341//50 
o mesh70
f 336//51 327//51 206//51 
f 206//51 208//51 336//51 
o mesh71
f 240//51 347//51 337//51 
f 337//51 286//51 240//51 
o mesh72
f 348//52 249//52 250//52 
f 250//52 344//52 348//52 
o mesh73
f 340//51 193//51 192//51 
f 192//51 348//51 340//51 
f 192//51 249//51 348//51 
o mesh74
f 329//52 196//52 194//52 
f 194//52 340//52 329//52 
f 329//52 290//52 196//52 
f 194//52 193//52 340//52 
o mesh75
f 329//53 335//53 195//53 
f 335//53 237//53 195//53 
f 195//53 290//53 329//53 
o mesh76
f 347//52 240//52 237//52 
f 237//52 335//52 347//52 
o mesh77
f 341//53 344//53 252//53 
f 344//53 250//53 252//53 
f 252//53 189//53 341//53 
o mesh78
f 338//54 336//54 207//54 
f 336//54 208//54 207//54 
f 207//54 279//54 338//54 
o mesh79
f 342//55 204//55 200//55 
f 338//55 205//55 204//55 
f 204//55 342//55 338//55 
f 338//55 279//55 205//55 
f 200//55 288//55 342//55 
o mesh80
f 342//54 288//54 201//54 
f 201//54 349//54 342//54 
o mesh81
f 349//55 201//55 202//55 
f 202//55 345//55 349//55 
o mesh82
f 345//56 202//56 203//56 
f 203//56 343//56 345//56 
o mesh83
f 343//57 199//57 197//57 
f 197//57 339//57 343//57 
f 343//57 203//57 199//57 
f 197//57 289//57 339//57 
o mesh84
f 337//56 339//56 198//56 
f 339//56 289//56 198//56 
f 198//56 286//56 337//56 
o mesh85
f 333//58 183//58 184//58 
f 184//58 334//58 333//58 
o mesh86
f 334//59 184//59 186//59 
f 186//59 332//59 334//59 
o mesh87
f 324//58 332//58 185//58 
f 332//58 186//58 185//58 
f 185//58 210//58 324//58 
o mesh88
f 330//60 191//60 190//60 
f 190//60 331//60 330//60 
f 190//60 187//60 331//60 
o mesh89
f 333//61 331//61 188//61 
f 331//61 187//61 188//61 
f 188//61 183//61 333//61 
o mesh90
f 346//60 211//60 212//60 
f 212//60 326//60 346//60 
o mesh91
f 326//61 212//61 213//61 
f 213//61 327//61 326//61 
f 213//61 206//61 327//61 
o mesh92
f 328//60 325//60 214//60 
f 214//60 287//60 328//60 
o mesh93
f 346//62 328//62 215//62 
f 328//62 287//62 215//62 
f 215//62 211//62 346//62 
o mesh94
f 350//63 223//63 222//63 
f 351//63 224//63 223//63 
f 223//63 350//63 351//63 
f 351//63 231//63 224//63 
f 222//63 218//63 350//63 
o mesh95
f 352//64 351//64 353//64 
f 351//64 350//64 354//64 
f 354//64 353//64 351//64 
f 355//64 356//64 354//64 
f 354//64 350//64 355//64 
f 357//64 358//64 351//64 
f 351//64 352//64 357//64 
f 353//64 359//64 352//64 
o mesh96
f 359//65 225//65 228//65 
f 228//65 352//65 359//65 
o mesh97
f 357//66 352//66 228//66 
f 228//66 229//66 357//66 
o mesh98
f 350//67 218//67 219//67 
f 219//67 355//67 350//67 
o mesh99
f 355//68 219//68 220//68 
f 220//68 356//68 355//68 
o mesh100
f 356//69 220//69 221//69 
f 221//69 354//69 356//69 
o mesh101
f 354//68 216//68 227//68 
f 227//68 353//68 354//68 
f 354//68 217//68 216//68 
f 354//68 221//68 217//68 
f 227//68 226//68 353//68 
o mesh102
f 353//70 226//70 225//70 
f 225//70 359//70 353//70 
o mesh103
f 358//70 230//70 231//70 
f 231//70 351//70 358//70 
o mesh104
f 357//71 229//71 230//71 
f 230//71 358//71 357//71 
o mesh105
f 360//71 178//71 175//71 
f 175//71 361//71 360//71 
o mesh106
f 361//70 175//70 176//70 
f 176//70 362//70 361//70 
o mesh107
f 362//72 176//72 177//72 
f 177//72 363//72 362//72 
o mesh108
f 363//73 177//73 178//73 
f 178//73 360//73 363//73 
o mesh109
f 363//74 360//74 361//74 
f 361//74 362//74 363//74 
o mesh110
f 364//73 251//73 248//73 
f 248//73 365//73 364//73 
o mesh111
f 366//74 367//74 368//74 
f 367//74 369//74 370//74 
f 370//74 368//74 367//74 
f 364//74 365//74 370//74 
f 370//74 369//74 364//74 
f 368//74 371//74 366//74 
o mesh112
f 369//75 232//75 233//75 
f 233//75 364//75 369//75 
f 233//75 251//75 364//75 
o mesh113
f 367//76 236//76 234//76 
f 234//76 369//76 367//76 
f 367//76 235//76 236//76 
f 234//76 232//76 369//76 
o mesh114
f 367//77 366//77 241//77 
f 366//77 239//77 241//77 
f 241//77 235//77 367//77 
o mesh115
f 371//78 238//78 239//78 
f 239//78 366//78 371//78 
o mesh116
f 371//79 368//79 242//79 
f 368//79 243//79 242//79 
f 242//79 238//79 371//79 
o mesh117
f 368//78 370//78 245//78 
f 245//78 244//78 368//78 
f 370//78 246//78 245//78 
f 244//78 243//78 368//78 
o mesh118
f 365//80 248//80 247//80 
f 247//80 370//80 365//80 
f 247//80 246//80 370//80 
o mesh119
f 372//81 254//81 255//81 
f 255//81 373//81 372//81 
o mesh120
f 373//82 374//82 375//82 
f 374//82 376//82 377//82 
f 377//82 375//82 374//82 
f 378//82 379//82 377//82 
f 377//82 376//82 378//82 
f 375//82 372//82 373//82 
o mesh121
f 373//83 253//83 285//83 
f 285//83 374//83 373//83 
f 373//83 255//83 253//83 
f 285//83 267//83 374//83 
o mesh122
f 376//84 374//84 266//84 
f 266//84 265//84 376//84 
f 374//84 267//84 266//84 
f 265//84 260//84 376//84 
o mesh123
f 376//85 260//85 261//85 
f 261//85 378//85 376//85 
o mesh124
f 378//86 261//86 262//86 
f 262//86 379//86 378//86 
o mesh125
f 379//87 262//87 264//87 
f 264//87 377//87 379//87 
o mesh126
f 377//86 263//86 259//86 
f 259//86 375//86 377//86 
f 377//86 264//86 263//86 
f 259//86 258//86 375//86 
o mesh127
f 372//88 375//88 257//88 
f 257//88 256//88 372//88 
f 375//88 258//88 257//88 
f 256//88 254//88 372//88 
o mesh128
f 380//89 268//89 269//89 
f 269//89 381//89 380//89 
o mesh129
f 381//88 269//88 270//88 
f 270//88 382//88 381//88 
f 270//88 273//88 382//88 
o mesh130
f 382//90 273//90 271//90 
f 271//90 383//90 382//90 
o mesh131
f 380//91 383//91 272//91 
f 383//91 271//91 272//91 
f 272//91 268//91 380//91 
o mesh132
f 383//92 380//92 381//92 
f 381//92 382//92 383//92 
o mesh133
f 384//93 281//93 282//93 
f 282//93 385//93 384//93 
o mesh134
f 386//92 387//92 388//92 
f 389//92 390//92 388//92 
f 388//92 387//92 389//92 
f 384//92 385//92 386//92 
f 386//92 391//92 384//92 
f 388//92 391//92 386//92 
o mesh135
f 385//94 282//94 284//94 
f 284//94 386//94 385//94 
o mesh136
f 386//93 284//93 283//93 
f 283//93 387//93 386//93 
f 283//93 274//93 387//93 
o mesh137
f 387//94 274//94 275//94 
f 275//94 389//94 387//94 
o mesh138
f 390//95 389//95 276//95 
f 389//95 275//95 276//95 
f 276//95 280//95 390//95 
o mesh139
f 390//96 280//96 278//96 
f 278//96 388//96 390//96 
o mesh140
f 388//95 278//95 277//95 
f 277//95 391//95 388//95 
o mesh141
f 391//96 277//96 281//96 
f 281//96 384//96 391//96 
o mesh142
f 392//96 181//96 182//96 
f 182//96 393//96 392//96 
o mesh143
f 393//97 182//97 180//97 
f 180//97 394//97 393//97 
o mesh144
f 394//98 180//98 179//98 
f 179//98 395//98 394//98 
o mesh145
f 395//99 179//99 181//99 
f 181//99 392//99 395//99 
o mesh146
f 395//100 392//100 393//100 
f 393//100 394//100 395//100 
