# OBJ generated by ONSHAPE BY PTC INC, 1.217 Units = meters
mtllib L2M3.mtl
g Part 1
v 0.49022 0.21082 0.0762 
v 0.1778 0.21082 0.0762 
v 0.254 0.21082 0 
v 0.4572 0.21082 0 
v 0.18161 0.21082 0 
v 0.1778 0.21082 0 
v 0.49022 0.21082 0 
v 0.1778 0.24638 0.0762 
v 0.1778 0.24638 0 
v 0.254 0.24638 0 
v 0.18161 0.24638 0 
v 0.59182 0.24638 0.0762 
v 0.4572 0.24638 0 
v 0.59182 0.24638 0 
v 0.59182 0.3048 0.0762 
v 0.59182 0.3048 0 
v 0.62738 0.3048 0.0762 
v 0.62738 0.3048 0 
v 0.62738 0.1016 0.0762 
v 0.62738 0.1016 0 
v 0.59182 0.1016 0.0762 
v 0.59182 0.1016 0 
v 0.59182 0.21082 0.0762 
v 0.59182 0.21082 0 
v 0.52578 0.21082 0.0762 
v 0.52578 0.21082 0 
v 0.49022 0.14478 0 
v 0.49022 0.14478 0.0762 
v 0.52578 0.10922 0.0762 
v 0.52578 0.10922 0 
v 0.3048 0.10922 0.0762 
v 0.3048 0.14478 0.0762 
v 0.4572 0.14478 0 
v 0.3048 0.14478 0 
v 0.3048 0.10922 0 
v 0.4572 0.10922 0 
v 0.00762 0.05461 0 
v 0.00762 0.00762 0 
v 0.04191 0.00762 0 
v 0.1651 0.00762 0 
v 0.18161 0.00762 0 
v 0.00762 0.32512 0 
v 0.00762 0.30861 0 
v 0.00762 0.38862 0 
v 0.00762 0.51308 0 
v 0.0762 0.43942 0 
v 0.1524 0.43942 0 
v 0.1524 0.47498 0 
v 0.0762 0.47498 0 
v 0.75438 0.05461 0 
v 0.75438 0.00762 0 
v 0.80518 0.00762 0 
v 0.80518 0.30861 0 
v 0.69342 0.29718 0 
v 0.6858 0.09398 0 
v 0.69342 0.16002 0 
v 0.75438 0.09398 0 
v 0.762 0.16002 0 
v 0.80518 0.26162 0 
v 0.762 0.19558 0 
v 0.72898 0.26162 0 
v 0.72898 0.19558 0 
v 0.6858 0.05842 0 
v 0.71882 0.05461 0 
v 0.71882 0.05842 0 
v 0.80518 0.05461 0 
v 0.80518 0.29718 0 
v 0.00762 0.80518 0 
v 0.00762 0.65278 0 
v 0.04191 0.65278 0 
v 0.00762 0.61722 0 
v 0.00762 0.55118 0 
v 0.04191 0.55118 0 
v 0.127 0.51562 0 
v 0.11938 0.61722 0 
v 0.127 0.55118 0 
v 0.09398 0.7366 0 
v 0.05842 0.7366 0 
v 0.08382 0.6858 0 
v 0.08382 0.65278 0 
v 0.1651 0.76962 0 
v 0.11938 0.6858 0 
v 0.09398 0.76962 0 
v 0.04191 0.80518 0 
v 0.04191 0.61722 0 
v 0.04191 0.51562 0 
v 0.00762 0.51562 0 
v 0.00762 0.24638 0 
v 0.04191 0.24638 0 
v 0.04191 0.21082 0 
v 0.08382 0.1016 0 
v 0.11938 0.1016 0 
v 0.11938 0.24638 0 
v 0.00762 0.21082 0 
v 0.11938 0.0508 0 
v 0.08382 0.0508 0 
v 0.08382 0.00762 0 
v 0.18542 0.00762 0 
v 0.22098 0.1524 0 
v 0.18542 0.1524 0 
v 0.18542 0.05461 0 
v 0.22098 0.05461 0 
v 0.22098 0.04318 0 
v 0.254 0.04318 0 
v 0.4572 0.04318 0 
v 0.71882 0.00762 0 
v 0.635 0.04318 0 
v 0.52578 0.32512 0 
v 0.80518 0.32512 0 
v 0.72898 0.36322 0 
v 0.80518 0.38862 0 
v 0.72898 0.38862 0 
v 0.52578 0.31242 0 
v 0.4572 0.34798 0 
v 0.49022 0.34798 0 
v 0.49022 0.38862 0 
v 0.4572 0.51562 0 
v 0.49022 0.51308 0 
v 0.254 0.76962 0 
v 0.254 0.65278 0 
v 0.28702 0.71882 0 
v 0.4572 0.65278 0 
v 0.4318 0.71882 0 
v 0.4572 0.80518 0 
v 0.4318 0.75438 0 
v 0.32258 0.80518 0 
v 0.32258 0.75438 0 
v 0.80518 0.80518 0 
v 0.57658 0.75438 0 
v 0.69342 0.7366 0 
v 0.57658 0.65278 0 
v 0.69342 0.65278 0 
v 0.4826 0.75438 0 
v 0.80518 0.51308 0 
v 0.72898 0.61722 0 
v 0.62738 0.55118 0 
v 0.72898 0.7366 0 
v 0.47498 0.65278 0 
v 0.47498 0.55118 0 
v 0.54102 0.61722 0 
v 0.4826 0.71882 0 
v 0.54102 0.71882 0 
v 0.52578 0.51308 0 
v 0.52578 0.39878 0 
v 0.59182 0.4572 0 
v 0.69342 0.39878 0 
v 0.62738 0.4572 0 
v 0.72898 0.508 0 
v 0.62738 0.51308 0 
v 0.69342 0.508 0 
v 0.59182 0.51308 0 
v 0.52578 0.51562 0 
v 0.28702 0.31242 0 
v 0.4318 0.31242 0 
v 0.381 0.31242 0 
v 0.381 0.32512 0 
v 0.4318 0.32512 0 
v 0.4572 0.31242 0 
v 0.28702 0.32512 0 
v 0.28702 0.38862 0 
v 0.32258 0.51308 0 
v 0.4318 0.51562 0 
v 0.381 0.51562 0 
v 0.381 0.55118 0 
v 0.4318 0.55118 0 
v 0.254 0.61722 0 
v 0.28702 0.55118 0 
v 0.28702 0.51308 0 
v 0.43942 0.61722 0 
v 0.32258 0.51562 0 
v 0.381 0.46482 0 
v 0.32258 0.38862 0 
v 0.381 0.4572 0 
v 0.4318 0.4572 0 
v 0.4318 0.46482 0 
v 0.381 0.34798 0 
v 0.4318 0.34798 0 
v 0.32258 0.34798 0 
v 0.1651 0.33782 0 
v 0.0762 0.37338 0 
v 0.0762 0.33782 0 
v 0.1651 0.37338 0 
v 0.18161 0.37338 0 
v 0.18542 0.37338 0 
v 0.18542 0.38862 0 
v 0.18161 0.51562 0 
v 0.18542 0.51308 0 
v 0.18161 0.76962 0 
v 0.1778 0.55118 0 
v 0.1778 0.51562 0 
v 0.22098 0.7366 0 
v 0.18542 0.7366 0 
v 0.18161 0.55118 0 
v 0.18542 0.61722 0 
v 0.22098 0.55118 0 
v 0.22098 0.51308 0 
v 0.22098 0.38862 0 
v 0.22098 0.33782 0 
v 0.18161 0.33782 0 
v 0.22098 0.65278 0 
v 0.18542 0.51562 0 
v 0.43942 0.55118 0 
v 0.59182 0.51562 0 
v 0.28702 0.76962 0 
v 0.49022 0.51562 0 
v 0.52578 0.36322 0 
v 0.635 0.00762 0 
v 0.11938 0.00762 0 
v 0.08382 0.21082 0 
v 0.05842 0.80518 0 
v 0.1651 0.05461 0 
v 0.04191 0.30861 0 
v 0.04191 0.32512 0 
v 0.1651 0.30861 0 
v 0.1651 0.32512 0 
v 0.18161 0.30861 0 
v 0.18161 0.32512 0 
v 0.254 0.30861 0 
v 0.04191 0.38862 0 
v 0.04191 0.51308 0 
v 0.1651 0.38862 0 
v 0.1651 0.51308 0 
v 0.18161 0.38862 0 
v 0.254 0.05461 0 
v 0.4572 0.05461 0 
v 0.18161 0.05461 0 
v 0.4572 0.30861 0 
v 0.04191 0.05461 0 
v 0.4572 0.38862 0 
v 0.4572 0.51308 0 
v 0.254 0.32512 0 
v 0.254 0.38862 0 
v 0.254 0.51308 0 
v 0.18161 0.51308 0 
v 0.11938 0.00762 0.0762 
v 0.18542 0.00762 0.0762 
v 0.00762 0.80518 0.0762 
v 0.00762 0.65278 0.0762 
v 0.00762 0.55118 0.0762 
v 0.00762 0.61722 0.0762 
v 0.80518 0.80518 0.0762 
v 0.32258 0.80518 0.0762 
v 0.00762 0.51562 0.0762 
v 0.00762 0.24638 0.0762 
v 0.00762 0.21082 0.0762 
v 0.00762 0.00762 0.0762 
v 0.635 0.00762 0.0762 
v 0.71882 0.00762 0.0762 
v 0.08382 0.00762 0.0762 
v 0.80518 0.29718 0.0762 
v 0.80518 0.26162 0.0762 
v 0.80518 0.00762 0.0762 
v 0.75438 0.00762 0.0762 
v 0.05842 0.80518 0.0762 
v 0.75438 0.09398 0.0762 
v 0.6858 0.09398 0.0762 
v 0.6858 0.05842 0.0762 
v 0.71882 0.05842 0.0762 
v 0.69342 0.29718 0.0762 
v 0.69342 0.16002 0.0762 
v 0.762 0.16002 0.0762 
v 0.762 0.19558 0.0762 
v 0.72898 0.19558 0.0762 
v 0.72898 0.26162 0.0762 
v 0.127 0.51562 0.0762 
v 0.127 0.55118 0.0762 
v 0.11938 0.0508 0.0762 
v 0.08382 0.0508 0.0762 
v 0.08382 0.1016 0.0762 
v 0.11938 0.1016 0.0762 
v 0.11938 0.24638 0.0762 
v 0.08382 0.21082 0.0762 
v 0.11938 0.6858 0.0762 
v 0.08382 0.6858 0.0762 
v 0.08382 0.65278 0.0762 
v 0.11938 0.61722 0.0762 
v 0.4318 0.71882 0.0762 
v 0.4318 0.75438 0.0762 
v 0.32258 0.75438 0.0762 
v 0.05842 0.7366 0.0762 
v 0.09398 0.7366 0.0762 
v 0.09398 0.76962 0.0762 
v 0.28702 0.76962 0.0762 
v 0.28702 0.71882 0.0762 
v 0.635 0.04318 0.0762 
v 0.22098 0.04318 0.0762 
v 0.22098 0.1524 0.0762 
v 0.18542 0.1524 0.0762 
v 0.52578 0.39878 0.0762 
v 0.52578 0.51562 0.0762 
v 0.62738 0.4572 0.0762 
v 0.62738 0.55118 0.0762 
v 0.59182 0.51562 0.0762 
v 0.49022 0.51562 0.0762 
v 0.52578 0.36322 0.0762 
v 0.72898 0.36322 0.0762 
v 0.69342 0.39878 0.0762 
v 0.72898 0.508 0.0762 
v 0.69342 0.508 0.0762 
v 0.4318 0.51562 0.0762 
v 0.47498 0.55118 0.0762 
v 0.43942 0.55118 0.0762 
v 0.47498 0.65278 0.0762 
v 0.43942 0.61722 0.0762 
v 0.49022 0.34798 0.0762 
v 0.52578 0.31242 0.0762 
v 0.22098 0.65278 0.0762 
v 0.18542 0.61722 0.0762 
v 0.4318 0.31242 0.0762 
v 0.18542 0.7366 0.0762 
v 0.59182 0.4572 0.0762 
v 0.4318 0.55118 0.0762 
v 0.4318 0.34798 0.0762 
v 0.22098 0.7366 0.0762 
v 0.4318 0.46482 0.0508 
v 0.381 0.46482 0.0508 
v 0.381 0.4572 0.0508 
v 0.4318 0.4572 0.0508 
v 0.381 0.34798 0.0762 
v 0.381 0.31242 0.0762 
v 0.381 0.55118 0.0762 
v 0.28702 0.55118 0.0762 
v 0.32258 0.51562 0.0762 
v 0.28702 0.31242 0.0762 
v 0.32258 0.34798 0.0762 
v 0.381 0.51562 0.0762 
v 0.0762 0.37338 0.0762 
v 0.0762 0.33782 0.0762 
v 0.22098 0.33782 0.0762 
v 0.18542 0.37338 0.0762 
v 0.22098 0.55118 0.0762 
v 0.18542 0.51562 0.0762 
v 0.1778 0.55118 0.0762 
v 0.1778 0.51562 0.0762 
v 0.1524 0.43942 0.0762 
v 0.1524 0.47498 0.0762 
v 0.0762 0.47498 0.0762 
v 0.0762 0.43942 0.0762 
v 0.72898 0.7366 0.0762 
v 0.69342 0.7366 0.0762 
v 0.57658 0.65278 0.0762 
v 0.57658 0.75438 0.0762 
v 0.54102 0.71882 0.0762 
v 0.4826 0.75438 0.0762 
v 0.4826 0.71882 0.0762 
v 0.72898 0.61722 0.0762 
v 0.69342 0.65278 0.0762 
v 0.54102 0.61722 0.0762 
v -1.66533e-16 0.8128 0.0762 
v 0 0 0.0762 
v 0.8128 0.8128 0.0762 
v 0.8128 0 0.0762 
v -1.66533e-16 0.8128 -0.00254 
v 0 0 -0.00254 
v 0.8128 0 -0.00254 
v 0.8128 0.8128 -0.00254 
vn 0 -1 0 
vn -1 0 0 
vn 0 1 0 
vn 1 1.22465e-16 0 
vn 0 -1 0 
vn -1 -1.22465e-16 0 
vn 1 1.22465e-16 0 
vn 0 0 1 
vn 0 1 0 
vn -1 0 0 
vn 0 -1 0 
vn 0 0 1 
vn 0 1 0 
vn 1 0 0 
vn 0 -1 0 
vn 0 1 0 
vn -1 -2.73185e-16 0 
vn 0 -1 0 
vn 1 1.22465e-16 0 
vn 0 1 0 
vn -1 0 0 
vn 0 -1 0 
vn 0 1 0 
vn -1 -1.22465e-16 0 
vn 0 -1 0 
vn 1 0 0 
vn 0 1 0 
vn 0 -1 0 
vn 1 0 0 
vn 0 1 0 
vn 0 -1 0 
vn 1 1.22465e-16 0 
vn 0 1 0 
vn -1 -1.22465e-16 0 
vn 0 -1 0 
vn 1 1.22465e-16 0 
vn 0 1 0 
vn 0 -1 0 
vn -1 -1.22465e-16 0 
vn 0 1 0 
vn 0 -1 0 
vn 1 1.22465e-16 0 
vn 0 1 0 
vn -1 -1.22465e-16 0 
vn 0 -1 0 
vn 1 1.22465e-16 0 
vn -1 -1.22465e-16 0 
vn 0 -1 0 
vn 1 0 0 
vn 0 1 0 
vn -1 -1.22465e-16 0 
vn 1 1.22465e-16 0 
vn 0 0 1 
vn 0 1 0 
vn -1 0 0 
vn 0 -1 0 
vn 1 1.22465e-16 0 
vn 0 1 0 
vn -1 -1.22465e-16 0 
vn 0 -1 0 
vn 0 1 0 
vn -1 -1.22465e-16 0 
vn 0 -1 0 
vn 1 1.22465e-16 0 
vn -1 -1.22465e-16 0 
vn 0 1 0 
vn 0 -1 0 
vn 1 0 0 
vn 0 0 1 
vn 0 -1 0 
vn -1 -1.22465e-16 0 
vn 0 1 0 
vn 1 0 0 
vn 0 -1 0 
vn 0 1 0 
vn -1 0 0 
vn 0 0 1 
vn 0 -1 0 
vn 1 1.22465e-16 0 
vn 0 1 0 
vn -1 0 0 
vn 0 -1 0 
vn 0 1 0 
vn 1 0 0 
vn -1 0 0 
vn 0 -1 0 
vn 0 0 1 
vn 0 1 0 
vn -1 -1.22465e-16 0 
vn 1 1.22465e-16 0 
vn 0 1 0 
vn -1 0 0 
vn 0 -1 0 
vn 1 1.22465e-16 0 
vn 0 0 1 
vn -1 0 0 
vn 0 -1 0 
vn 1 2.73185e-16 0 
vn 0 1 0 
vn 0 0 -1 
usemtl 0.768627_0.886275_0.952941_0.000000_0.000000
o mesh0
f 1//1 2//1 3//1 
f 3//1 4//1 1//1 
f 2//1 5//1 3//1 
f 2//1 6//1 5//1 
f 4//1 7//1 1//1 
o mesh1
f 8//2 9//2 6//2 
f 6//2 2//2 8//2 
o mesh2
f 8//3 10//3 11//3 
f 8//3 12//3 13//3 
f 13//3 10//3 8//3 
f 12//3 14//3 13//3 
f 11//3 9//3 8//3 
o mesh3
f 15//2 16//2 14//2 
f 14//2 12//2 15//2 
o mesh4
f 17//3 18//3 16//3 
f 16//3 15//3 17//3 
o mesh5
f 17//4 19//4 20//4 
f 20//4 18//4 17//4 
o mesh6
f 21//5 22//5 20//5 
f 20//5 19//5 21//5 
o mesh7
f 23//6 24//6 22//6 
f 22//6 21//6 23//6 
o mesh8
f 23//5 25//5 26//5 
f 26//5 24//5 23//5 
o mesh9
f 27//6 28//6 1//6 
f 1//6 7//6 27//6 
o mesh10
f 29//7 30//7 26//7 
f 26//7 25//7 29//7 
o mesh11
f 12//8 1//8 25//8 
f 17//8 15//8 12//8 
f 19//8 17//8 23//8 
f 12//8 23//8 17//8 
f 25//8 23//8 12//8 
f 25//8 1//8 28//8 
f 31//8 29//8 28//8 
f 28//8 29//8 25//8 
f 23//8 21//8 19//8 
f 8//8 2//8 1//8 
f 1//8 12//8 8//8 
f 28//8 32//8 31//8 
o mesh12
f 32//9 28//9 33//9 
f 28//9 27//9 33//9 
f 33//9 34//9 32//9 
o mesh13
f 32//10 34//10 35//10 
f 35//10 31//10 32//10 
o mesh14
f 31//11 35//11 36//11 
f 36//11 29//11 31//11 
f 36//11 30//11 29//11 
o mesh15
f 37//12 38//12 39//12 
f 211//12 40//12 41//12 
f 42//12 43//12 212//12 
f 213//12 212//12 214//12 
f 215//12 214//12 216//12 
f 217//12 216//12 218//12 
f 44//12 42//12 213//12 
f 45//12 44//12 219//12 
f 220//12 219//12 46//12 
f 221//12 47//12 46//12 
f 46//12 219//12 221//12 
f 222//12 48//12 47//12 
f 222//12 220//12 49//12 
f 47//12 221//12 222//12 
f 46//12 49//12 220//12 
f 222//12 221//12 223//12 
f 4//12 33//12 27//12 
f 4//12 3//12 34//12 
f 224//12 35//12 34//12 
f 34//12 3//12 224//12 
f 225//12 36//12 35//12 
f 35//12 224//12 225//12 
f 216//12 214//12 9//12 
f 214//12 211//12 6//12 
f 6//12 9//12 214//12 
f 226//12 5//12 6//12 
f 6//12 211//12 226//12 
f 216//12 11//12 10//12 
f 218//12 10//12 13//12 
f 50//12 51//12 52//12 
f 53//12 18//12 54//12 
f 18//12 55//12 56//12 
f 56//12 54//12 18//12 
f 57//12 58//12 56//12 
f 56//12 55//12 57//12 
f 59//12 60//12 58//12 
f 58//12 57//12 59//12 
f 61//12 62//12 60//12 
f 225//12 22//12 30//12 
f 24//12 26//12 30//12 
f 63//12 20//12 22//12 
f 64//12 65//12 63//12 
f 66//12 59//12 57//12 
f 60//12 59//12 61//12 
f 30//12 22//12 24//12 
f 63//12 225//12 64//12 
f 54//12 67//12 53//12 
f 20//12 63//12 55//12 
f 22//12 225//12 63//12 
f 55//12 18//12 20//12 
f 57//12 50//12 66//12 
f 227//12 16//12 18//12 
f 18//12 53//12 227//12 
f 13//12 14//12 16//12 
f 16//12 227//12 13//12 
f 68//12 69//12 70//12 
f 71//12 72//12 73//12 
f 220//12 222//12 74//12 
f 222//12 75//12 76//12 
f 77//12 78//12 79//12 
f 70//12 80//12 79//12 
f 76//12 74//12 222//12 
f 73//12 76//12 75//12 
f 81//12 82//12 75//12 
f 81//12 83//12 77//12 
f 84//12 70//12 78//12 
f 79//12 78//12 70//12 
f 75//12 85//12 73//12 
f 77//12 82//12 81//12 
f 79//12 82//12 77//12 
f 75//12 222//12 81//12 
f 74//12 86//12 220//12 
f 87//12 45//12 220//12 
f 43//12 88//12 89//12 
f 90//12 228//12 91//12 
f 228//12 211//12 92//12 
f 92//12 91//12 228//12 
f 211//12 214//12 93//12 
f 93//12 92//12 211//12 
f 212//12 89//12 93//12 
f 93//12 214//12 212//12 
f 94//12 37//12 228//12 
f 40//12 211//12 95//12 
f 228//12 96//12 95//12 
f 95//12 211//12 228//12 
f 39//12 97//12 96//12 
f 96//12 228//12 39//12 
f 226//12 41//12 98//12 
f 224//12 3//12 99//12 
f 5//12 100//12 99//12 
f 99//12 3//12 5//12 
f 226//12 101//12 100//12 
f 100//12 5//12 226//12 
f 102//12 103//12 104//12 
f 224//12 104//12 105//12 
f 106//12 64//12 107//12 
f 225//12 105//12 107//12 
f 107//12 64//12 225//12 
f 108//12 109//12 110//12 
f 111//12 112//12 110//12 
f 110//12 109//12 111//12 
f 227//12 53//12 113//12 
f 109//12 108//12 113//12 
f 113//12 53//12 109//12 
f 229//12 114//12 115//12 
f 230//12 229//12 116//12 
f 117//12 230//12 118//12 
f 119//12 120//12 121//12 
f 122//12 123//12 121//12 
f 121//12 120//12 122//12 
f 124//12 125//12 123//12 
f 123//12 122//12 124//12 
f 126//12 127//12 125//12 
f 125//12 124//12 126//12 
f 128//12 129//12 130//12 
f 131//12 132//12 130//12 
f 130//12 129//12 131//12 
f 124//12 133//12 129//12 
f 134//12 135//12 136//12 
f 128//12 137//12 135//12 
f 138//12 139//12 140//12 
f 140//12 139//12 136//12 
f 129//12 128//12 124//12 
f 124//12 122//12 141//12 
f 135//12 134//12 128//12 
f 136//12 135//12 140//12 
f 141//12 133//12 124//12 
f 141//12 122//12 138//12 
f 140//12 142//12 138//12 
f 138//12 142//12 141//12 
f 130//12 137//12 128//12 
f 143//12 144//12 145//12 
f 144//12 146//12 147//12 
f 111//12 134//12 148//12 
f 149//12 150//12 148//12 
f 147//12 145//12 144//12 
f 150//12 149//12 147//12 
f 148//12 134//12 149//12 
f 147//12 146//12 150//12 
f 145//12 151//12 143//12 
f 152//12 143//12 151//12 
f 231//12 218//12 153//12 
f 218//12 154//12 155//12 
f 155//12 153//12 218//12 
f 156//12 155//12 154//12 
f 154//12 157//12 156//12 
f 227//12 158//12 154//12 
f 154//12 218//12 227//12 
f 232//12 231//12 159//12 
f 233//12 232//12 160//12 
f 161//12 162//12 163//12 
f 164//12 163//12 162//12 
f 162//12 165//12 164//12 
f 166//12 167//12 164//12 
f 164//12 165//12 166//12 
f 233//12 168//12 167//12 
f 169//12 166//12 165//12 
f 167//12 166//12 233//12 
f 163//12 170//12 161//12 
f 230//12 117//12 162//12 
f 162//12 161//12 230//12 
f 230//12 161//12 171//12 
f 161//12 172//12 173//12 
f 229//12 174//12 173//12 
f 230//12 175//12 174//12 
f 173//12 171//12 161//12 
f 174//12 229//12 230//12 
f 173//12 172//12 229//12 
f 229//12 176//12 177//12 
f 157//12 177//12 176//12 
f 176//12 156//12 157//12 
f 172//12 178//12 176//12 
f 176//12 229//12 172//12 
f 179//12 215//12 217//12 
f 221//12 219//12 180//12 
f 213//12 181//12 180//12 
f 180//12 219//12 213//12 
f 215//12 179//12 181//12 
f 181//12 213//12 215//12 
f 221//12 182//12 183//12 
f 223//12 183//12 184//12 
f 234//12 223//12 185//12 
f 186//12 234//12 187//12 
f 188//12 81//12 189//12 
f 222//12 190//12 189//12 
f 189//12 81//12 222//12 
f 234//12 186//12 190//12 
f 190//12 222//12 234//12 
f 120//12 119//12 191//12 
f 188//12 192//12 191//12 
f 191//12 119//12 188//12 
f 188//12 193//12 194//12 
f 233//12 166//12 195//12 
f 194//12 193//12 195//12 
f 194//12 192//12 188//12 
f 195//12 166//12 194//12 
f 195//12 196//12 233//12 
f 196//12 197//12 232//12 
f 217//12 231//12 198//12 
f 232//12 197//12 198//12 
f 198//12 231//12 232//12 
f 198//12 199//12 217//12 
f 232//12 233//12 196//12 
f 191//12 200//12 120//12 
f 189//12 193//12 188//12 
f 187//12 201//12 186//12 
f 185//12 187//12 234//12 
f 184//12 185//12 223//12 
f 183//12 223//12 221//12 
f 180//12 182//12 221//12 
f 217//12 199//12 179//12 
f 177//12 114//12 229//12 
f 171//12 175//12 230//12 
f 165//12 202//12 169//12 
f 160//12 168//12 233//12 
f 159//12 160//12 232//12 
f 153//12 159//12 231//12 
f 151//12 203//12 152//12 
f 148//12 112//12 111//12 
f 136//12 149//12 134//12 
f 121//12 204//12 119//12 
f 118//12 205//12 117//12 
f 116//12 118//12 230//12 
f 115//12 116//12 229//12 
f 113//12 158//12 227//12 
f 110//12 206//12 108//12 
f 107//12 207//12 106//12 
f 105//12 225//12 224//12 
f 104//12 224//12 102//12 
f 99//12 102//12 224//12 
f 98//12 101//12 226//12 
f 95//12 208//12 40//12 
f 228//12 90//12 94//12 
f 91//12 209//12 90//12 
f 89//12 212//12 43//12 
f 220//12 86//12 87//12 
f 78//12 210//12 84//12 
f 73//12 85//12 71//12 
f 70//12 84//12 68//12 
f 30//12 36//12 225//12 
f 52//12 66//12 50//12 
f 13//12 227//12 218//12 
f 10//12 218//12 216//12 
f 9//12 11//12 216//12 
f 34//12 33//12 4//12 
f 27//12 7//12 4//12 
f 223//12 234//12 222//12 
f 49//12 48//12 222//12 
f 219//12 220//12 45//12 
f 213//12 219//12 44//12 
f 218//12 231//12 217//12 
f 216//12 217//12 215//12 
f 214//12 215//12 213//12 
f 212//12 213//12 42//12 
f 41//12 226//12 211//12 
f 39//12 228//12 37//12 
o mesh16
f 235//13 236//13 40//13 
f 236//13 41//13 40//13 
f 236//13 98//13 41//13 
f 40//13 208//13 235//13 
o mesh17
f 68//14 237//14 238//14 
f 238//14 69//14 68//14 
o mesh18
f 239//14 72//14 71//14 
f 71//14 240//14 239//14 
o mesh19
f 241//15 242//15 124//15 
f 242//15 126//15 124//15 
f 124//15 128//15 241//15 
o mesh20
f 243//14 44//14 45//14 
f 244//14 42//14 44//14 
f 44//14 243//14 244//14 
f 244//14 43//14 42//14 
f 244//14 88//14 43//14 
f 45//14 87//14 243//14 
o mesh21
f 245//14 246//14 37//14 
f 246//14 38//14 37//14 
f 37//14 94//14 245//14 
o mesh22
f 106//16 207//16 247//16 
f 247//16 248//16 106//16 
o mesh23
f 249//16 97//16 39//16 
f 39//16 246//16 249//16 
f 39//16 38//16 246//16 
o mesh24
f 250//17 109//17 53//17 
f 250//17 111//17 109//17 
f 250//17 134//17 111//17 
f 241//17 128//17 134//17 
f 134//17 250//17 241//17 
f 53//17 67//17 250//17 
o mesh25
f 251//17 59//17 66//17 
f 66//17 252//17 251//17 
f 66//17 52//17 252//17 
o mesh26
f 252//16 52//16 51//16 
f 51//16 253//16 252//16 
o mesh27
f 237//18 68//18 84//18 
f 84//18 254//18 237//18 
f 84//18 210//18 254//18 
o mesh28
f 253//19 51//19 50//19 
f 50//19 255//19 253//19 
f 50//19 57//19 255//19 
o mesh29
f 255//20 57//20 55//20 
f 55//20 256//20 255//20 
o mesh30
f 256//21 55//21 63//21 
f 63//21 257//21 256//21 
o mesh31
f 257//22 63//22 65//22 
f 65//22 258//22 257//22 
o mesh32
f 248//21 258//21 64//21 
f 258//21 65//21 64//21 
f 64//21 106//21 248//21 
o mesh33
f 259//23 250//23 67//23 
f 67//23 54//23 259//23 
o mesh34
f 259//24 54//24 56//24 
f 56//24 260//24 259//24 
o mesh35
f 260//25 56//25 58//25 
f 58//25 261//25 260//25 
o mesh36
f 261//26 58//26 60//26 
f 60//26 262//26 261//26 
o mesh37
f 262//27 60//27 62//27 
f 62//27 263//27 262//27 
o mesh38
f 263//26 62//26 61//26 
f 61//26 264//26 263//26 
o mesh39
f 61//28 59//28 251//28 
f 251//28 264//28 61//28 
o mesh40
f 265//29 74//29 76//29 
f 76//29 266//29 265//29 
o mesh41
f 266//30 76//30 73//30 
f 73//30 239//30 266//30 
f 73//30 72//30 239//30 
o mesh42
f 265//31 243//31 86//31 
f 243//31 87//31 86//31 
f 86//31 74//31 265//31 
o mesh43
f 267//32 235//32 208//32 
f 208//32 95//32 267//32 
o mesh44
f 267//33 95//33 96//33 
f 96//33 268//33 267//33 
o mesh45
f 97//34 249//34 268//34 
f 268//34 96//34 97//34 
o mesh46
f 269//35 91//35 92//35 
f 92//35 270//35 269//35 
o mesh47
f 270//36 92//36 93//36 
f 93//36 271//36 270//36 
o mesh48
f 271//37 93//37 89//37 
f 89//37 244//37 271//37 
f 89//37 88//37 244//37 
o mesh49
f 272//38 245//38 90//38 
f 245//38 94//38 90//38 
f 90//38 209//38 272//38 
o mesh50
f 272//39 209//39 91//39 
f 91//39 269//39 272//39 
o mesh51
f 273//40 82//40 79//40 
f 79//40 274//40 273//40 
o mesh52
f 274//39 79//39 80//39 
f 80//39 275//39 274//39 
o mesh53
f 275//40 80//40 70//40 
f 70//40 238//40 275//40 
f 70//40 69//40 238//40 
o mesh54
f 276//41 240//41 85//41 
f 240//41 71//41 85//41 
f 85//41 75//41 276//41 
o mesh55
f 276//42 75//42 82//42 
f 82//42 273//42 276//42 
o mesh56
f 277//42 123//42 125//42 
f 125//42 278//42 277//42 
o mesh57
f 278//43 125//43 127//43 
f 127//43 279//43 278//43 
o mesh58
f 279//42 127//42 126//42 
f 126//42 242//42 279//42 
o mesh59
f 254//44 210//44 78//44 
f 78//44 280//44 254//44 
o mesh60
f 280//45 78//45 77//45 
f 77//45 281//45 280//45 
o mesh61
f 281//46 77//46 83//46 
f 83//46 282//46 281//46 
o mesh62
f 283//45 282//45 188//45 
f 188//45 119//45 283//45 
f 282//45 81//45 188//45 
f 282//45 83//45 81//45 
f 119//45 204//45 283//45 
o mesh63
f 283//47 204//47 121//47 
f 121//47 284//47 283//47 
o mesh64
f 284//48 121//48 123//48 
f 123//48 277//48 284//48 
o mesh65
f 247//49 207//49 107//49 
f 107//49 285//49 247//49 
o mesh66
f 286//50 285//50 105//50 
f 105//50 104//50 286//50 
f 285//50 107//50 105//50 
f 104//50 103//50 286//50 
o mesh67
f 287//49 286//49 102//49 
f 286//49 103//49 102//49 
f 102//49 99//49 287//49 
o mesh68
f 287//50 99//50 100//50 
f 100//50 288//50 287//50 
o mesh69
f 288//51 100//51 101//51 
f 101//51 236//51 288//51 
f 101//51 98//51 236//51 
o mesh70
f 289//52 144//52 143//52 
f 143//52 290//52 289//52 
f 143//52 152//52 290//52 
o mesh71
f 291//53 292//53 293//53 
f 292//53 294//53 290//53 
f 290//53 293//53 292//53 
f 294//53 295//53 289//53 
f 289//53 290//53 294//53 
f 295//53 296//53 297//53 
f 297//53 289//53 295//53 
f 298//53 299//53 297//53 
f 300//53 301//53 302//53 
f 301//53 303//53 304//53 
f 297//53 296//53 298//53 
f 305//53 306//53 295//53 
f 304//53 302//53 301//53 
f 307//53 308//53 304//53 
f 309//53 306//53 305//53 
f 295//53 294//53 305//53 
f 310//53 308//53 307//53 
f 304//53 303//53 307//53 
f 293//53 311//53 291//53 
f 301//53 300//53 294//53 
f 302//53 312//53 300//53 
f 294//53 292//53 301//53 
f 305//53 313//53 309//53 
f 307//53 314//53 310//53 
o mesh72
f 295//52 306//52 108//52 
f 306//52 113//52 108//52 
f 108//52 206//52 295//52 
o mesh73
f 301//54 292//54 136//54 
f 136//54 139//54 301//54 
o mesh74
f 165//54 312//54 302//54 
f 302//54 202//54 165//54 
o mesh75
f 313//55 177//55 157//55 
f 157//55 309//55 313//55 
f 157//55 154//55 309//55 
o mesh76
f 305//54 115//54 114//54 
f 114//54 313//54 305//54 
f 114//54 177//54 313//54 
o mesh77
f 294//55 118//55 116//55 
f 116//55 305//55 294//55 
f 294//55 205//55 118//55 
f 116//55 115//55 305//55 
o mesh78
f 294//56 300//56 117//56 
f 300//56 162//56 117//56 
f 117//56 205//56 294//56 
o mesh79
f 312//55 165//55 162//55 
f 162//55 300//55 312//55 
o mesh80
f 306//56 309//56 158//56 
f 309//56 154//56 158//56 
f 158//56 113//56 306//56 
o mesh81
f 303//57 301//57 139//57 
f 139//57 138//57 303//57 
o mesh82
f 303//58 122//58 120//58 
f 120//58 307//58 303//58 
f 303//58 138//58 122//58 
f 120//58 200//58 307//58 
o mesh83
f 307//57 200//57 191//57 
f 191//57 314//57 307//57 
o mesh84
f 314//58 191//58 192//58 
f 192//58 310//58 314//58 
o mesh85
f 310//59 192//59 194//59 
f 194//59 308//59 310//59 
o mesh86
f 304//60 308//60 166//60 
f 308//60 194//60 166//60 
f 166//60 169//60 304//60 
o mesh87
f 169//59 202//59 302//59 
f 302//59 304//59 169//59 
o mesh88
f 298//61 148//61 150//61 
f 150//61 299//61 298//61 
o mesh89
f 299//62 150//62 146//62 
f 146//62 297//62 299//62 
o mesh90
f 146//61 144//61 289//61 
f 289//61 297//61 146//61 
o mesh91
f 296//63 295//63 206//63 
f 206//63 110//63 296//63 
o mesh92
f 298//64 296//64 112//64 
f 296//64 110//64 112//64 
f 112//64 148//64 298//64 
o mesh93
f 311//63 145//63 147//63 
f 147//63 291//63 311//63 
o mesh94
f 291//64 147//64 149//64 
f 149//64 292//64 291//64 
f 149//64 136//64 292//64 
o mesh95
f 293//63 290//63 152//63 
f 152//63 203//63 293//63 
o mesh96
f 311//65 293//65 151//65 
f 293//65 203//65 151//65 
f 151//65 145//65 311//65 
o mesh97
f 315//66 175//66 171//66 
f 171//66 316//66 315//66 
o mesh98
f 316//65 171//65 173//65 
f 173//65 317//65 316//65 
o mesh99
f 317//67 173//67 174//67 
f 174//67 318//67 317//67 
o mesh100
f 318//68 174//68 175//68 
f 175//68 315//68 318//68 
o mesh101
f 318//69 315//69 316//69 
f 316//69 317//69 318//69 
o mesh102
f 319//68 320//68 156//68 
f 320//68 155//68 156//68 
f 156//68 176//68 319//68 
o mesh103
f 321//69 322//69 323//69 
f 322//69 324//69 325//69 
f 325//69 323//69 322//69 
f 320//69 319//69 325//69 
f 325//69 324//69 320//69 
f 323//69 326//69 321//69 
o mesh104
f 324//70 153//70 155//70 
f 155//70 320//70 324//70 
o mesh105
f 324//71 160//71 159//71 
f 322//71 168//71 160//71 
f 160//71 324//71 322//71 
f 322//71 167//71 168//71 
f 159//71 153//71 324//71 
o mesh106
f 321//72 164//72 167//72 
f 167//72 322//72 321//72 
o mesh107
f 326//73 163//73 164//73 
f 164//73 321//73 326//73 
o mesh108
f 323//74 170//74 163//74 
f 163//74 326//74 323//74 
o mesh109
f 323//73 325//73 172//73 
f 172//73 161//73 323//73 
f 325//73 178//73 172//73 
f 161//73 170//73 323//73 
o mesh110
f 319//75 176//75 178//75 
f 178//75 325//75 319//75 
o mesh111
f 327//76 180//76 181//76 
f 181//76 328//76 327//76 
o mesh112
f 328//77 329//77 330//77 
f 329//77 331//77 332//77 
f 332//77 330//77 329//77 
f 333//77 334//77 332//77 
f 332//77 331//77 333//77 
f 330//77 327//77 328//77 
o mesh113
f 329//78 179//78 199//78 
f 328//78 181//78 179//78 
f 179//78 329//78 328//78 
f 199//78 198//78 329//78 
o mesh114
f 331//79 329//79 197//79 
f 197//79 196//79 331//79 
f 329//79 198//79 197//79 
f 196//79 195//79 331//79 
o mesh115
f 331//80 195//80 193//80 
f 193//80 333//80 331//80 
f 193//80 189//80 333//80 
o mesh116
f 333//81 189//81 190//81 
f 190//81 334//81 333//81 
o mesh117
f 332//82 334//82 186//82 
f 334//82 190//82 186//82 
f 186//82 201//82 332//82 
o mesh118
f 332//81 187//81 185//81 
f 185//81 330//81 332//81 
f 332//81 201//81 187//81 
f 185//81 184//81 330//81 
o mesh119
f 327//83 330//83 182//83 
f 330//83 183//83 182//83 
f 330//83 184//83 183//83 
f 182//83 180//83 327//83 
o mesh120
f 335//84 47//84 48//84 
f 48//84 336//84 335//84 
o mesh121
f 336//83 48//83 49//83 
f 49//83 337//83 336//83 
o mesh122
f 337//85 49//85 46//85 
f 46//85 338//85 337//85 
o mesh123
f 338//86 46//86 47//86 
f 47//86 335//86 338//86 
o mesh124
f 338//87 335//87 336//87 
f 336//87 337//87 338//87 
o mesh125
f 339//88 137//88 130//88 
f 130//88 340//88 339//88 
o mesh126
f 341//87 342//87 343//87 
f 344//87 345//87 343//87 
f 343//87 342//87 344//87 
f 346//87 347//87 341//87 
f 341//87 348//87 346//87 
f 339//87 340//87 347//87 
f 347//87 346//87 339//87 
f 343//87 348//87 341//87 
o mesh127
f 340//89 130//89 132//89 
f 132//89 347//89 340//89 
o mesh128
f 347//88 132//88 131//88 
f 131//88 341//88 347//88 
o mesh129
f 341//90 131//90 129//90 
f 129//90 342//90 341//90 
o mesh130
f 342//91 129//91 133//91 
f 133//91 344//91 342//91 
o mesh131
f 344//92 133//92 141//92 
f 141//92 345//92 344//92 
o mesh132
f 345//93 141//93 142//93 
f 142//93 343//93 345//93 
o mesh133
f 343//92 142//92 140//92 
f 140//92 348//92 343//92 
o mesh134
f 348//93 140//93 135//93 
f 135//93 346//93 348//93 
o mesh135
f 346//94 135//94 137//94 
f 137//94 339//94 346//94 
o mesh136
f 349//95 243//95 239//95 
f 266//95 239//95 243//95 
f 243//95 265//95 266//95 
f 349//95 245//95 244//95 
f 244//95 243//95 349//95 
f 244//95 245//95 272//95 
f 270//95 271//95 272//95 
f 272//95 271//95 244//95 
f 239//95 240//95 349//95 
f 350//95 246//95 245//95 
f 245//95 349//95 350//95 
f 350//95 235//95 249//95 
f 350//95 248//95 247//95 
f 249//95 246//95 350//95 
f 268//95 249//95 235//95 
f 350//95 253//95 248//95 
f 235//95 267//95 268//95 
f 247//95 236//95 350//95 
f 288//95 236//95 286//95 
f 236//95 235//95 350//95 
f 236//95 247//95 286//95 
f 286//95 287//95 288//95 
f 272//95 269//95 270//95 
f 253//95 255//95 258//95 
f 283//95 284//95 279//95 
f 277//95 278//95 279//95 
f 351//95 254//95 242//95 
f 242//95 254//95 282//95 
f 258//95 248//95 253//95 
f 256//95 257//95 258//95 
f 279//95 284//95 277//95 
f 282//95 283//95 242//95 
f 258//95 255//95 256//95 
f 352//95 252//95 253//95 
f 242//95 241//95 351//95 
f 280//95 281//95 282//95 
f 253//95 350//95 352//95 
f 352//95 250//95 251//95 
f 282//95 254//95 280//95 
f 349//95 237//95 254//95 
f 251//95 252//95 352//95 
f 250//95 259//95 264//95 
f 254//95 351//95 349//95 
f 349//95 240//95 238//95 
f 264//95 251//95 250//95 
f 259//95 260//95 263//95 
f 238//95 237//95 349//95 
f 240//95 276//95 275//95 
f 263//95 264//95 259//95 
f 261//95 262//95 263//95 
f 275//95 238//95 240//95 
f 273//95 274//95 275//95 
f 263//95 260//95 261//95 
f 351//95 241//95 250//95 
f 275//95 276//95 273//95 
f 250//95 352//95 351//95 
f 247//95 285//95 286//95 
f 279//95 242//95 283//95 
o mesh137
f 353//96 354//96 350//96 
f 350//96 349//96 353//96 
o mesh138
f 354//97 355//97 352//97 
f 352//97 350//97 354//97 
o mesh139
f 355//98 356//98 351//98 
f 351//98 352//98 355//98 
o mesh140
f 356//99 353//99 349//99 
f 349//99 351//99 356//99 
o mesh141
f 356//100 355//100 354//100 
f 354//100 353//100 356//100 
